<?xml version="1.0" encoding="utf-8"?>
<!-- Generator: Adobe Illustrator 27.5.0, SVG Export Plug-In . SVG Version: 6.00 Build 0)  -->
<svg version="1.1" xmlns="http://www.w3.org/2000/svg" xmlns:xlink="http://www.w3.org/1999/xlink" x="0px" y="0px"
	 viewBox="0 0 500 500" style="enable-background:new 0 0 500 500;" xml:space="preserve">
<g id="Background_Complete">
	<g>
		<rect x="416.779" y="398.494" style="fill:#EBEBEB;" width="33.122" height="0.25"/>
		<rect x="322.527" y="401.208" style="fill:#EBEBEB;" width="8.693" height="0.25"/>
		<rect x="396.586" y="389.208" style="fill:#EBEBEB;" width="19.192" height="0.25"/>
		<rect x="52.459" y="390.888" style="fill:#EBEBEB;" width="43.193" height="0.25"/>
		<rect x="104.556" y="390.888" style="fill:#EBEBEB;" width="6.333" height="0.25"/>
		<rect x="131.471" y="395.111" style="fill:#EBEBEB;" width="93.676" height="0.25"/>
		<g>
			<path style="fill:#EBEBEB;" d="M238.401,337.8H45.302c-3.147,0-5.708-2.561-5.708-5.708V60.66c0-3.147,2.561-5.708,5.708-5.708
				h193.099c3.146,0,5.707,2.561,5.707,5.708v271.432C244.108,335.239,241.547,337.8,238.401,337.8z M45.302,55.203
				c-3.01,0-5.458,2.448-5.458,5.458v271.432c0,3.01,2.448,5.458,5.458,5.458h193.099c3.009,0,5.457-2.448,5.457-5.458V60.66
				c0-3.009-2.448-5.458-5.457-5.458H45.302z"/>
			<path style="fill:#EBEBEB;" d="M454.698,337.8H261.599c-3.146,0-5.707-2.561-5.707-5.708V60.66c0-3.147,2.561-5.708,5.707-5.708
				h193.099c3.148,0,5.708,2.561,5.708,5.708v271.432C460.406,335.239,457.845,337.8,454.698,337.8z M261.599,55.203
				c-3.009,0-5.457,2.448-5.457,5.458v271.432c0,3.01,2.448,5.458,5.457,5.458h193.099c3.01,0,5.458-2.448,5.458-5.458V60.66
				c0-3.009-2.448-5.458-5.458-5.458H261.599z"/>
		</g>
		<rect y="382.398" style="fill:#EBEBEB;" width="500" height="0.25"/>
	</g>
	<g>
		<g>
			<rect x="324.111" y="125.988" style="fill:#EBEBEB;" width="107.892" height="256.084"/>
			<rect x="328.699" y="130.626" style="fill:#F0F0F0;" width="98.716" height="251.445"/>
			<rect x="336.168" y="140.856" style="fill:#FAFAFA;" width="39.574" height="106.057"/>
			<rect x="380.897" y="140.856" style="fill:#FAFAFA;" width="39.574" height="106.057"/>
			<rect x="336.168" y="283.733" style="fill:#FAFAFA;" width="84.303" height="92.087"/>
			<rect x="337.434" y="252.654" style="fill:#EBEBEB;" width="9.342" height="24.344"/>
			
				<rect x="346.776" y="252.654" transform="matrix(-1 -1.224647e-16 1.224647e-16 -1 695.3875 529.6516)" style="fill:#E0E0E0;" width="1.835" height="24.344"/>
			<path style="fill:#E0E0E0;" d="M343.691,262.217c0,2.176-1.764,3.94-3.94,3.94c-2.176,0-3.94-1.764-3.94-3.94
				s1.764-3.94,3.94-3.94C341.927,258.278,343.691,260.042,343.691,262.217z"/>
			<rect x="340.91" y="269.028" style="fill:#E0E0E0;" width="2.03" height="4.927"/>
			<path style="fill:#F0F0F0;" d="M352.522,262.217c0,1.337-11.627,2.421-12.964,2.421c-1.337,0-2.421-1.084-2.421-2.421
				s1.084-2.421,2.421-2.421C340.894,259.797,352.522,260.88,352.522,262.217z"/>
		</g>
		<g>
			<g>
				<polygon style="fill:#F5F5F5;" points="85.661,93.049 73.674,110.108 73.674,231.776 167.184,231.776 167.184,93.049 				"/>
				<path style="fill:#EBEBEB;" d="M85.661,93.049l-11.987,17.058c0,0-0.513,3.75,8.487,6.5
					C82.161,116.608,78.161,101.358,85.661,93.049z"/>
				
					<rect x="160.508" y="86.746" transform="matrix(0.7071 -0.7071 0.7071 0.7071 -19.918 143.9066)" style="fill:#EBEBEB;" width="6.482" height="18.5"/>
				
					<rect x="73.588" y="219.358" transform="matrix(0.7071 -0.7071 0.7071 0.7071 -139.1474 121.2836)" style="fill:#EBEBEB;" width="6.482" height="18.5"/>
				
					<rect x="160.508" y="219.358" transform="matrix(-0.7071 -0.7071 0.7071 -0.7071 117.8838 506.0451)" style="fill:#EBEBEB;" width="6.482" height="18.5"/>
				<g>
					<rect x="93.244" y="116.587" style="fill:#E0E0E0;" width="3.675" height="3.675"/>
					<polygon style="fill:#E0E0E0;" points="96.92,120.262 96.909,120.262 93.244,120.262 89.569,120.262 89.569,123.937 
						93.244,123.937 96.909,123.937 96.92,123.937 100.584,123.937 100.584,120.262 					"/>
					<rect x="104.259" y="116.587" style="fill:#EBEBEB;" width="3.675" height="3.675"/>
					<polygon style="fill:#EBEBEB;" points="107.935,120.262 107.924,120.262 104.259,120.262 100.584,120.262 100.584,123.937 
						104.259,123.937 107.924,123.937 107.935,123.937 111.599,123.937 111.599,120.262 					"/>
					<polygon style="fill:#E0E0E0;" points="96.92,123.937 96.909,123.937 93.244,123.937 89.569,123.937 85.893,123.937 
						85.893,127.613 89.569,127.613 93.244,127.613 96.909,127.613 96.92,127.613 100.584,127.613 100.584,123.937 					"/>
					<polygon style="fill:#E0E0E0;" points="96.92,127.613 96.909,127.613 93.244,127.613 89.569,127.613 89.569,131.288 
						93.244,131.288 96.909,131.288 96.92,131.288 100.584,131.288 100.584,127.613 					"/>
					<polygon style="fill:#EBEBEB;" points="107.935,127.613 107.924,127.613 104.259,127.613 100.584,127.613 100.584,131.288 
						104.259,131.288 107.924,131.288 107.935,131.288 111.599,131.288 111.599,127.613 					"/>
					<polygon style="fill:#E0E0E0;" points="96.92,131.288 96.909,131.288 93.244,131.288 93.244,134.963 96.909,134.963 
						96.92,134.963 100.584,134.963 100.584,131.288 					"/>
					<polygon style="fill:#EBEBEB;" points="104.259,131.288 100.584,131.288 100.584,134.963 104.259,134.963 107.935,134.963 
						107.935,131.288 					"/>
					<rect x="96.909" y="134.963" style="fill:#E0E0E0;" width="3.675" height="3.675"/>
					<rect x="100.584" y="134.963" style="fill:#EBEBEB;" width="3.675" height="3.675"/>
					<polygon style="fill:#EBEBEB;" points="111.599,123.937 107.935,123.937 107.924,123.937 104.259,123.937 100.584,123.937 
						100.584,127.613 104.259,127.613 107.924,127.613 107.935,127.613 111.599,127.613 115.275,127.613 115.275,123.937 					"/>
				</g>
				<g>
					<rect x="84.061" y="140.365" style="fill:#E0E0E0;" width="1.838" height="1.838"/>
					<polygon style="fill:#E0E0E0;" points="85.899,142.202 85.893,142.202 84.061,142.202 82.223,142.202 82.223,144.04 
						84.061,144.04 85.893,144.04 85.899,144.04 87.731,144.04 87.731,142.202 					"/>
					<rect x="89.569" y="140.365" style="fill:#EBEBEB;" width="1.838" height="1.838"/>
					<polygon style="fill:#EBEBEB;" points="91.407,142.202 91.401,142.202 89.569,142.202 87.731,142.202 87.731,144.04 
						89.569,144.04 91.401,144.04 91.407,144.04 93.239,144.04 93.239,142.202 					"/>
					<polygon style="fill:#E0E0E0;" points="85.899,144.04 85.893,144.04 84.061,144.04 82.223,144.04 80.386,144.04 
						80.386,145.878 82.223,145.878 84.061,145.878 85.893,145.878 85.899,145.878 87.731,145.878 87.731,144.04 					"/>
					<polygon style="fill:#E0E0E0;" points="85.899,145.878 85.893,145.878 84.061,145.878 82.223,145.878 82.223,147.715 
						84.061,147.715 85.893,147.715 85.899,147.715 87.731,147.715 87.731,145.878 					"/>
					<polygon style="fill:#EBEBEB;" points="91.407,145.878 91.401,145.878 89.569,145.878 87.731,145.878 87.731,147.715 
						89.569,147.715 91.401,147.715 91.407,147.715 93.239,147.715 93.239,145.878 					"/>
					<polygon style="fill:#E0E0E0;" points="85.899,147.715 85.893,147.715 84.061,147.715 84.061,149.553 85.893,149.553 
						85.899,149.553 87.731,149.553 87.731,147.715 					"/>
					<polygon style="fill:#EBEBEB;" points="89.569,147.715 87.731,147.715 87.731,149.553 89.569,149.553 91.407,149.553 
						91.407,147.715 					"/>
					<rect x="85.893" y="149.553" style="fill:#E0E0E0;" width="1.838" height="1.838"/>
					<rect x="87.731" y="149.553" style="fill:#EBEBEB;" width="1.838" height="1.838"/>
					<polygon style="fill:#EBEBEB;" points="93.239,144.04 91.407,144.04 91.401,144.04 89.569,144.04 87.731,144.04 
						87.731,145.878 89.569,145.878 91.401,145.878 91.407,145.878 93.239,145.878 95.076,145.878 95.076,144.04 					"/>
				</g>
				<g>
					<rect x="104.347" y="147.715" style="fill:#E0E0E0;" width="1.149" height="1.149"/>
					<polygon style="fill:#E0E0E0;" points="105.496,148.864 105.493,148.864 104.347,148.864 103.198,148.864 103.198,150.013 
						104.347,150.013 105.493,150.013 105.496,150.013 106.641,150.013 106.641,148.864 					"/>
					<rect x="107.79" y="147.715" style="fill:#EBEBEB;" width="1.149" height="1.149"/>
					<polygon style="fill:#EBEBEB;" points="108.939,148.864 108.935,148.864 107.79,148.864 106.641,148.864 106.641,150.013 
						107.79,150.013 108.935,150.013 108.939,150.013 110.084,150.013 110.084,148.864 					"/>
					<polygon style="fill:#E0E0E0;" points="105.496,150.013 105.493,150.013 104.347,150.013 103.198,150.013 102.05,150.013 
						102.05,151.161 103.198,151.161 104.347,151.161 105.493,151.161 105.496,151.161 106.641,151.161 106.641,150.013 					"/>
					<polygon style="fill:#E0E0E0;" points="105.496,151.161 105.493,151.161 104.347,151.161 103.198,151.161 103.198,152.31 
						104.347,152.31 105.493,152.31 105.496,152.31 106.641,152.31 106.641,151.161 					"/>
					<polygon style="fill:#EBEBEB;" points="108.939,151.161 108.935,151.161 107.79,151.161 106.641,151.161 106.641,152.31 
						107.79,152.31 108.935,152.31 108.939,152.31 110.084,152.31 110.084,151.161 					"/>
					<polygon style="fill:#E0E0E0;" points="105.496,152.31 105.493,152.31 104.347,152.31 104.347,153.459 105.493,153.459 
						105.496,153.459 106.641,153.459 106.641,152.31 					"/>
					<polygon style="fill:#EBEBEB;" points="107.79,152.31 106.641,152.31 106.641,153.459 107.79,153.459 108.939,153.459 
						108.939,152.31 					"/>
					<rect x="105.493" y="153.459" style="fill:#E0E0E0;" width="1.149" height="1.149"/>
					<rect x="106.641" y="153.459" style="fill:#EBEBEB;" width="1.149" height="1.149"/>
					<polygon style="fill:#EBEBEB;" points="110.084,150.013 108.939,150.013 108.935,150.013 107.79,150.013 106.641,150.013 
						106.641,151.161 107.79,151.161 108.935,151.161 108.939,151.161 110.084,151.161 111.233,151.161 111.233,150.013 					"/>
				</g>
				<g>
					<path style="fill:#EBEBEB;" d="M139.451,136.007c0,5.007-4.059,3.946-9.066,3.946c-5.007,0-9.066,1.061-9.066-3.946
						c0-5.007,4.059-9.066,9.066-9.066C135.392,126.941,139.451,131,139.451,136.007z"/>
					<g>
						<path style="fill:#E0E0E0;" d="M133.893,137.237c0-0.508-1.571-0.919-3.508-0.919c-1.938,0-3.508,0.411-3.508,0.919
							l-0.9,6.826c0,0.638,1.974,1.155,4.409,1.155c2.435,0,4.408-0.517,4.408-1.155L133.893,137.237z"/>
					</g>
					<path style="fill:#F5F5F5;" d="M121.503,134.182c0.655,0.469,1.452,0.753,2.32,0.753c2.208,0,3.997-1.79,3.997-3.997
						c0-1.232-0.569-2.32-1.445-3.053C123.907,129.107,122.069,131.41,121.503,134.182z"/>
					<path style="fill:#F5F5F5;" d="M139.436,135.723c-0.085-2.757-1.396-5.202-3.413-6.808c-0.756,0.727-1.23,1.744-1.23,2.876
						c0,2.207,1.789,3.997,3.997,3.997C139.012,135.788,139.225,135.758,139.436,135.723z"/>
				</g>
				<g>
					<path style="fill:#EBEBEB;" d="M152.41,126.718c-1.224,3.469-3.777,1.742-7.245,0.518c-3.469-1.224-6.54-1.481-5.316-4.95
						c1.224-3.469,5.028-5.289,8.497-4.065C151.814,119.445,153.633,123.249,152.41,126.718z"/>
					<g>
						<path style="fill:#E0E0E0;" d="M148.259,126.211c0.124-0.352-0.864-1.021-2.206-1.494c-1.342-0.474-2.531-0.573-2.655-0.221
							l-2.292,4.509c-0.156,0.442,1.085,1.282,2.772,1.878c1.687,0.595,3.18,0.719,3.336,0.278L148.259,126.211z"/>
					</g>
					<path style="fill:#F5F5F5;" d="M140.421,121.066c0.339,0.485,0.822,0.877,1.423,1.089c1.529,0.54,3.206-0.263,3.746-1.792
						c0.301-0.853,0.173-1.746-0.255-2.468C143.327,118.138,141.492,119.284,140.421,121.066z"/>
					<path style="fill:#F5F5F5;" d="M152.469,126.517c0.615-1.931,0.304-3.945-0.7-5.55c-0.701,0.319-1.279,0.908-1.555,1.691
						c-0.54,1.529,0.263,3.206,1.792,3.746C152.159,126.459,152.314,126.49,152.469,126.517z"/>
				</g>
				<g>
					<path style="fill:#FAFAFA;" d="M142.033,152.928c-5.423,0-10.107,3.116-12.393,7.648l1.387,2.099h2.785v0l1.882,2.083h2.258
						l1.617,1.833l2.464,0.22l-3.464,0.613l-0.781,1.523l-2.844,0.311l-1.333,1.792h-2.458l-1.512,1.998
						c2.286,4.533,6.97,7.648,12.393,7.648c7.668,0,13.885-6.216,13.885-13.885S149.701,152.928,142.033,152.928z"/>
					<path style="fill:#E0E0E0;" d="M143.511,158.823c0.339,1.174-0.339,2.4-1.513,2.739c-1.174,0.339-2.4-0.339-2.739-1.513
						L143.511,158.823z"/>
					<path style="fill:#E0E0E0;" d="M139.141,159.61c-0.339-1.174,0.339-2.4,1.513-2.739s2.4,0.339,2.739,1.513L139.141,159.61z"/>
					<path style="fill:#E0E0E0;" d="M126.431,166.287h-1.295v-1.295c0-0.5-0.405-0.906-0.905-0.906l0,0
						c-0.5,0-0.906,0.405-0.906,0.906v1.295h-1.295c-0.5,0-0.906,0.405-0.906,0.906l0,0c0,0.5,0.405,0.906,0.906,0.906h1.295v1.295
						c0,0.5,0.405,0.906,0.906,0.906l0,0c0.5,0,0.905-0.405,0.905-0.906v-1.295h1.295c0.5,0,0.906-0.405,0.906-0.906l0,0
						C127.337,166.692,126.931,166.287,126.431,166.287z"/>
					<path style="fill:#E0E0E0;" d="M113.886,166.287h-1.295v-1.295c0-0.5-0.405-0.906-0.906-0.906l0,0
						c-0.5,0-0.905,0.405-0.905,0.906v1.295h-1.295c-0.5,0-0.906,0.405-0.906,0.906l0,0c0,0.5,0.405,0.906,0.906,0.906h1.295v1.295
						c0,0.5,0.405,0.906,0.905,0.906l0,0c0.5,0,0.906-0.405,0.906-0.906v-1.295h1.295c0.5,0,0.906-0.405,0.906-0.906l0,0
						C114.792,166.692,114.386,166.287,113.886,166.287z"/>
					<path style="fill:#E0E0E0;" d="M101.341,166.287h-1.295v-1.295c0-0.5-0.405-0.906-0.906-0.906l0,0
						c-0.5,0-0.905,0.405-0.905,0.906v1.295h-1.295c-0.5,0-0.906,0.405-0.906,0.906l0,0c0,0.5,0.405,0.906,0.906,0.906h1.295v1.295
						c0,0.5,0.405,0.906,0.905,0.906l0,0c0.5,0,0.906-0.405,0.906-0.906v-1.295h1.295c0.5,0,0.906-0.405,0.906-0.906l0,0
						C102.247,166.692,101.842,166.287,101.341,166.287z"/>
				</g>
			</g>
			<g>
				<rect x="110.004" y="183.812" style="fill:#EBEBEB;" width="6.414" height="38.706"/>
				<polygon style="fill:#EBEBEB;" points="118.698,222.785 107.292,222.785 110.004,220.743 116.418,220.743 				"/>
				<polygon style="fill:#E0E0E0;" points="133.567,222.821 131.511,222.821 131.532,221.046 				"/>
				<polygon style="fill:#E0E0E0;" points="131.532,184.187 131.511,222.821 118.698,222.785 116.418,220.743 116.418,184.115 				
					"/>
			</g>
		</g>
	</g>
</g>
<g id="Background_Simple" style="display:none;">
	<g style="display:inline;">
		<path style="fill:#407BFF;" d="M386.168,290.647c-5.176,33.747,16.314,83.352-26.669,102.177
			c-57.404,25.142-93.372-38.5-139.952-50.153c-35.582-8.901-97.066,55.696-141.381,14.686
			c-44.36-41.051,30.313-96.977,33.123-130.368c2.781-33.036-59.052-90.582-9.449-125.667
			c48.641-34.404,103.965,31.308,150.022,43.578c40.859,10.886,140.139-40.88,169.657,9.869
			C449.483,202.844,391.166,258.068,386.168,290.647z"/>
		<path style="opacity:0.9;fill:#FFFFFF;" d="M386.168,290.647c-5.176,33.747,16.314,83.352-26.669,102.177
			c-57.404,25.142-93.372-38.5-139.952-50.153c-35.582-8.901-97.066,55.696-141.381,14.686
			c-44.36-41.051,30.313-96.977,33.123-130.368c2.781-33.036-59.052-90.582-9.449-125.667
			c48.641-34.404,103.965,31.308,150.022,43.578c40.859,10.886,140.139-40.88,169.657,9.869
			C449.483,202.844,391.166,258.068,386.168,290.647z"/>
	</g>
</g>
<g id="Shadow">
	<ellipse id="_x3C_Path_x3E__1_" style="fill:#F5F5F5;" cx="245.178" cy="412.391" rx="193.889" ry="11.323"/>
</g>
<g id="Character_Model">
	<g>
		<g>
			<rect x="203.464" y="92.354" style="fill:#407BFF;" width="87.516" height="93.762"/>
			<rect x="206.718" y="95.608" style="opacity:0.9;fill:#FFFFFF;" width="81.009" height="87.255"/>
		</g>
		<g>
			<path style="fill:#407BFF;" d="M215.779,90.456c-0.22,0-1.066,0-1.286,0c-1.947,0-3.525,1.578-3.525,3.525
				c0,1.947,1.578,3.525,3.525,3.525c0.22,0,1.066,0,1.286,0c1.947,0,3.525-1.578,3.525-3.525
				C219.303,92.034,217.725,90.456,215.779,90.456z"/>
			<path style="opacity:0.3;fill:#FFFFFF;" d="M215.779,90.456c-0.22,0-1.066,0-1.286,0c-1.947,0-3.525,1.578-3.525,3.525
				c0,1.947,1.578,3.525,3.525,3.525c0.22,0,1.066,0,1.286,0c1.947,0,3.525-1.578,3.525-3.525
				C219.303,92.034,217.725,90.456,215.779,90.456z"/>
			<path style="opacity:0.2;" d="M218.017,93.981c0,1.947-1.578,3.525-3.525,3.525c-1.947,0-3.525-1.578-3.525-3.525
				c0-1.947,1.578-3.525,3.525-3.525C216.439,90.456,218.017,92.034,218.017,93.981z"/>
		</g>
		<g>
			<path style="fill:#407BFF;" d="M290.544,115.819c-0.22,0-1.066,0-1.286,0c-1.946,0-3.525,1.578-3.525,3.525
				c0,1.947,1.578,3.525,3.525,3.525c0.22,0,1.066,0,1.286,0c1.947,0,3.525-1.578,3.525-3.525
				C294.068,117.397,292.49,115.819,290.544,115.819z"/>
			<path style="opacity:0.3;fill:#FFFFFF;" d="M290.544,115.819c-0.22,0-1.066,0-1.286,0c-1.946,0-3.525,1.578-3.525,3.525
				c0,1.947,1.578,3.525,3.525,3.525c0.22,0,1.066,0,1.286,0c1.947,0,3.525-1.578,3.525-3.525
				C294.068,117.397,292.49,115.819,290.544,115.819z"/>
			<path style="opacity:0.2;" d="M292.782,119.343c0,1.947-1.578,3.525-3.525,3.525c-1.947,0-3.525-1.578-3.525-3.525
				c0-1.947,1.578-3.525,3.525-3.525C291.204,115.819,292.782,117.397,292.782,119.343z"/>
		</g>
		<g>
			<g>
				<path style="fill:#407BFF;" d="M209.117,100.165v80.482h44.18v-80.482H209.117z M244.569,100.707h8.185v8.185h-8.185V100.707z
					 M244.569,109.609h8.185v8.186h-8.185V109.609z M244.569,118.51h8.185v8.186h-8.185V118.51z M244.569,127.412h8.185v8.186
					h-8.185V127.412z M244.569,136.314h8.185v8.185h-8.185V136.314z M244.569,145.215h8.185v8.185h-8.185V145.215z M244.569,154.117
					h8.185v8.185h-8.185V154.117z M244.569,163.018h8.185v8.186h-8.185V163.018z M217.844,171.203h-8.185v-8.186h8.185V171.203z
					 M217.844,162.302h-8.185v-8.185h8.185V162.302z M217.844,153.4h-8.185v-8.185h8.185V153.4z M217.844,144.499h-8.185v-8.185
					h8.185V144.499z M217.844,135.597h-8.185v-8.186h8.185V135.597z M217.844,126.696h-8.185v-8.186h8.185V126.696z
					 M217.844,117.794h-8.185v-8.186h8.185V117.794z M226.572,171.203h-8.185v-8.186h8.185V171.203z M235.299,118.51v8.186h-8.185
					v-8.186H235.299z M235.299,127.412v8.186h-8.185v-8.186H235.299z M235.299,136.314v8.185h-8.185v-8.185H235.299z
					 M235.299,145.215v8.185h-8.185v-8.185H235.299z M235.299,154.117v8.185h-8.185v-8.185H235.299z M235.299,117.794h-8.185v-8.186
					h8.185V117.794z M226.572,117.794h-8.185v-8.186h8.185V117.794z M226.572,126.696h-8.185v-8.186h8.185V126.696z
					 M226.572,135.597h-8.185v-8.186h8.185V135.597z M226.572,144.499h-8.185v-8.185h8.185V144.499z M226.572,153.4h-8.185v-8.185
					h8.185V153.4z M226.572,162.302h-8.185v-8.185h8.185V162.302z M227.114,163.018h8.185v8.186h-8.185V163.018z M235.841,163.018
					h8.186v8.186h-8.186V163.018z M235.841,154.117h8.186v8.185h-8.186V154.117z M235.841,145.215h8.186v8.185h-8.186V145.215z
					 M235.841,136.314h8.186v8.185h-8.186V136.314z M235.841,127.412h8.186v8.186h-8.186V127.412z M235.841,118.51h8.186v8.186
					h-8.186V118.51z M235.841,109.609h8.186v8.186h-8.186V109.609z M235.841,100.707h8.186v8.185h-8.186V100.707z M227.114,100.707
					h8.185v8.185h-8.185V100.707z M218.386,100.707h8.185v8.185h-8.185V100.707z M209.659,100.707h8.185v8.185h-8.185V100.707z
					 M217.844,180.105h-8.185v-8.185h8.185V180.105z M226.572,180.105h-8.185v-8.185h8.185V180.105z M235.299,180.105h-8.185v-8.185
					h8.185V180.105z M244.027,180.105h-8.186v-8.185h8.186V180.105z M252.754,180.105h-8.185v-8.185h8.185V180.105z"/>
				<path style="opacity:0.5;fill:#FFFFFF;" d="M209.117,100.165v80.482h44.18v-80.482H209.117z M244.569,100.707h8.185v8.185
					h-8.185V100.707z M244.569,109.609h8.185v8.186h-8.185V109.609z M244.569,118.51h8.185v8.186h-8.185V118.51z M244.569,127.412
					h8.185v8.186h-8.185V127.412z M244.569,136.314h8.185v8.185h-8.185V136.314z M244.569,145.215h8.185v8.185h-8.185V145.215z
					 M244.569,154.117h8.185v8.185h-8.185V154.117z M244.569,163.018h8.185v8.186h-8.185V163.018z M217.844,171.203h-8.185v-8.186
					h8.185V171.203z M217.844,162.302h-8.185v-8.185h8.185V162.302z M217.844,153.4h-8.185v-8.185h8.185V153.4z M217.844,144.499
					h-8.185v-8.185h8.185V144.499z M217.844,135.597h-8.185v-8.186h8.185V135.597z M217.844,126.696h-8.185v-8.186h8.185V126.696z
					 M217.844,117.794h-8.185v-8.186h8.185V117.794z M226.572,171.203h-8.185v-8.186h8.185V171.203z M235.299,118.51v8.186h-8.185
					v-8.186H235.299z M235.299,127.412v8.186h-8.185v-8.186H235.299z M235.299,136.314v8.185h-8.185v-8.185H235.299z
					 M235.299,145.215v8.185h-8.185v-8.185H235.299z M235.299,154.117v8.185h-8.185v-8.185H235.299z M235.299,117.794h-8.185v-8.186
					h8.185V117.794z M226.572,117.794h-8.185v-8.186h8.185V117.794z M226.572,126.696h-8.185v-8.186h8.185V126.696z
					 M226.572,135.597h-8.185v-8.186h8.185V135.597z M226.572,144.499h-8.185v-8.185h8.185V144.499z M226.572,153.4h-8.185v-8.185
					h8.185V153.4z M226.572,162.302h-8.185v-8.185h8.185V162.302z M227.114,163.018h8.185v8.186h-8.185V163.018z M235.841,163.018
					h8.186v8.186h-8.186V163.018z M235.841,154.117h8.186v8.185h-8.186V154.117z M235.841,145.215h8.186v8.185h-8.186V145.215z
					 M235.841,136.314h8.186v8.185h-8.186V136.314z M235.841,127.412h8.186v8.186h-8.186V127.412z M235.841,118.51h8.186v8.186
					h-8.186V118.51z M235.841,109.609h8.186v8.186h-8.186V109.609z M235.841,100.707h8.186v8.185h-8.186V100.707z M227.114,100.707
					h8.185v8.185h-8.185V100.707z M218.386,100.707h8.185v8.185h-8.185V100.707z M209.659,100.707h8.185v8.185h-8.185V100.707z
					 M217.844,180.105h-8.185v-8.185h8.185V180.105z M226.572,180.105h-8.185v-8.185h8.185V180.105z M235.299,180.105h-8.185v-8.185
					h8.185V180.105z M244.027,180.105h-8.186v-8.185h8.186V180.105z M252.754,180.105h-8.185v-8.185h8.185V180.105z"/>
			</g>
			<g>
				<polygon style="fill:#263238;" points="233.441,113.557 229.357,113.557 229.993,106.077 232.805,106.077 				"/>
				<polygon style="opacity:0.5;fill:#FFFFFF;" points="233.441,113.557 229.357,113.557 229.993,106.077 232.805,106.077 				"/>
				<polygon style="fill:#407BFF;" points="232.987,111.106 229.811,111.106 228.665,104.517 234.133,104.517 				"/>
				<polygon style="opacity:0.5;fill:#FFFFFF;" points="232.987,111.106 229.811,111.106 228.665,104.517 234.133,104.517 				"/>
				<polygon style="fill:#407BFF;" points="229.238,101.366 233.56,101.366 234.133,104.517 228.665,104.517 				"/>
				<polygon style="opacity:0.3;fill:#FFFFFF;" points="229.238,101.366 233.56,101.366 234.133,104.517 228.665,104.517 				"/>
				<g>
					<polygon style="fill:#407BFF;" points="225.904,128.411 236.894,128.411 237.373,135.52 225.424,135.52 					"/>
					<polygon style="opacity:0.3;fill:#FFFFFF;" points="225.904,128.411 236.894,128.411 237.373,135.52 225.424,135.52 					"/>
				</g>
				<g>
					<polygon style="fill:#407BFF;" points="229.487,151.894 225.104,151.894 224.503,159.595 225.113,174.555 227.586,174.555 
						230.087,158.322 					"/>
					<polygon style="opacity:0.3;fill:#FFFFFF;" points="229.487,151.894 225.104,151.894 224.503,159.595 225.113,174.555 
						227.586,174.555 230.087,158.322 					"/>
				</g>
				<g>
					<polygon style="fill:#407BFF;" points="225.424,135.52 225.104,151.894 229.487,151.894 231.399,135.52 					"/>
					<polygon style="opacity:0.5;fill:#FFFFFF;" points="225.424,135.52 225.104,151.894 229.487,151.894 231.399,135.52 					"/>
				</g>
				<g>
					<polygon style="fill:#407BFF;" points="233.387,151.894 237.77,151.894 238.37,159.595 237.761,174.555 235.287,174.555 
						232.786,158.322 					"/>
					<polygon style="opacity:0.3;fill:#FFFFFF;" points="233.387,151.894 237.77,151.894 238.37,159.595 237.761,174.555 
						235.287,174.555 232.786,158.322 					"/>
				</g>
				<g>
					<polygon style="fill:#407BFF;" points="237.449,135.52 237.77,151.894 233.387,151.894 231.475,135.52 					"/>
					<polygon style="opacity:0.5;fill:#FFFFFF;" points="237.449,135.52 237.77,151.894 233.387,151.894 231.475,135.52 					"/>
				</g>
				<g>
					<polygon style="fill:#407BFF;" points="236.894,128.411 225.904,128.411 224.788,112.39 238.01,112.39 					"/>
					<polygon style="opacity:0.3;fill:#FFFFFF;" points="236.894,128.411 225.904,128.411 224.788,112.39 238.01,112.39 					"/>
					<polygon style="opacity:0.3;fill:#FFFFFF;" points="225.904,128.411 231.399,120.401 236.894,128.411 					"/>
				</g>
				<g>
					<polygon style="fill:#263238;" points="220.874,177.633 225.113,174.555 227.586,174.555 226.154,179.446 					"/>
					<polygon style="opacity:0.5;fill:#FFFFFF;" points="220.874,177.633 225.113,174.555 227.586,174.555 226.154,179.446 					"/>
					<rect x="220.874" y="177.633" style="fill:#263238;" width="5.279" height="1.813"/>
					<rect x="220.874" y="177.633" style="opacity:0.3;fill:#FFFFFF;" width="5.279" height="1.813"/>
				</g>
				<g>
					<polygon style="fill:#263238;" points="241.999,177.633 237.761,174.555 235.287,174.555 236.72,179.446 					"/>
					<polygon style="opacity:0.5;fill:#FFFFFF;" points="241.999,177.633 237.761,174.555 235.287,174.555 236.72,179.446 					"/>
					
						<rect x="236.72" y="177.633" transform="matrix(-1 -1.224647e-16 1.224647e-16 -1 478.7187 357.0795)" style="fill:#263238;" width="5.279" height="1.813"/>
					
						<rect x="236.72" y="177.633" transform="matrix(-1 -1.224647e-16 1.224647e-16 -1 478.7187 357.0795)" style="opacity:0.3;fill:#FFFFFF;" width="5.279" height="1.813"/>
				</g>
				<g>
					<polygon style="fill:#407BFF;" points="222.971,124.877 219.827,124.877 222.373,112.39 226.154,112.39 					"/>
					<polygon style="fill:#263238;" points="222.971,124.877 219.827,124.877 219.019,129.048 218.778,136.985 221.525,136.985 
						222.898,129.048 					"/>
					<polygon style="fill:#263238;" points="221.525,136.985 218.778,136.985 218.363,139.996 219.295,141.463 221.048,140.712 
						221.971,139.338 					"/>
					<polygon style="opacity:0.5;fill:#FFFFFF;" points="222.971,124.877 219.827,124.877 222.373,112.39 226.154,112.39 					"/>
					<polygon style="opacity:0.6;fill:#FFFFFF;" points="222.971,124.877 219.827,124.877 219.019,129.048 218.778,136.985 
						221.525,136.985 222.898,129.048 					"/>
					<polygon style="opacity:0.5;fill:#FFFFFF;" points="221.525,136.985 218.778,136.985 218.363,139.996 219.295,141.463 
						221.048,140.712 221.971,139.338 					"/>
					<g>
						<polygon style="fill:#263238;" points="226.499,116.581 222.202,116.581 221.566,111.727 227.136,111.727 						"/>
						<polygon style="fill:#263238;" points="221.566,111.727 218.778,116.581 220.874,117.536 222.202,116.581 						"/>
						<polygon style="opacity:0.5;fill:#FFFFFF;" points="226.499,116.581 222.202,116.581 221.566,111.727 227.136,111.727 						
							"/>
						<polygon style="opacity:0.6;fill:#FFFFFF;" points="221.566,111.727 218.778,116.581 220.874,117.536 222.202,116.581 						
							"/>
					</g>
				</g>
				<g>
					<polygon style="fill:#407BFF;" points="239.443,124.877 242.587,124.877 240.041,112.39 236.26,112.39 					"/>
					<polygon style="opacity:0.5;fill:#FFFFFF;" points="239.443,124.877 242.587,124.877 240.041,112.39 236.26,112.39 					"/>
					<polygon style="fill:#263238;" points="239.443,124.877 242.587,124.877 243.394,129.048 243.635,136.985 240.889,136.985 
						239.515,129.048 					"/>
					<polygon style="opacity:0.6;fill:#FFFFFF;" points="239.443,124.877 242.587,124.877 243.394,129.048 243.635,136.985 
						240.889,136.985 239.515,129.048 					"/>
					<polygon style="fill:#263238;" points="240.889,136.985 243.635,136.985 244.051,139.996 243.119,141.463 241.365,140.712 
						240.442,139.338 					"/>
					<polygon style="opacity:0.5;fill:#FFFFFF;" points="240.889,136.985 243.635,136.985 244.051,139.996 243.119,141.463 
						241.365,140.712 240.442,139.338 					"/>
					<g>
						<polygon style="fill:#263238;" points="235.9,116.581 240.198,116.581 240.834,111.727 235.264,111.727 						"/>
						<polygon style="opacity:0.5;fill:#FFFFFF;" points="235.9,116.581 240.198,116.581 240.834,111.727 235.264,111.727 						"/>
						<polygon style="fill:#263238;" points="240.834,111.727 243.622,116.581 241.525,117.536 240.198,116.581 						"/>
						<polygon style="opacity:0.6;fill:#FFFFFF;" points="240.834,111.727 243.622,116.581 241.525,117.536 240.198,116.581 						
							"/>
					</g>
				</g>
			</g>
		</g>
		<g>
			<g>
				<g style="opacity:0.9;">
					<rect x="276.869" y="112.355" style="fill:#263238;" width="4.822" height="1.368"/>
					<rect x="259.84" y="112.355" style="fill:#263238;" width="4.379" height="1.368"/>
					<rect x="266.832" y="112.355" style="fill:#263238;" width="5.148" height="1.368"/>
					<rect x="272.766" y="112.355" style="fill:#263238;" width="3.249" height="1.368"/>
				</g>
				<g style="opacity:0.9;">
					<g>
						<rect x="259.84" y="109.345" style="fill:#263238;" width="4.379" height="1.368"/>
						<rect x="266.832" y="109.345" style="fill:#263238;" width="2.542" height="1.368"/>
						<rect x="275.304" y="109.345" style="fill:#263238;" width="4.379" height="1.368"/>
						<rect x="270.15" y="109.345" style="fill:#263238;" width="4.379" height="1.368"/>
					</g>
					<g>
						<rect x="266.832" y="115.366" style="fill:#263238;" width="3.506" height="1.369"/>
						<rect x="271.192" y="115.366" style="fill:#263238;" width="4.822" height="1.369"/>
						<rect x="276.869" y="115.366" style="fill:#263238;" width="3.454" height="1.369"/>
						<rect x="259.84" y="115.366" style="fill:#263238;" width="4.379" height="1.369"/>
					</g>
				</g>
			</g>
			<g style="opacity:0.3;">
				<g style="opacity:0.9;">
					<rect x="276.869" y="112.355" style="fill:#FFFFFF;" width="4.822" height="1.368"/>
					<rect x="259.84" y="112.355" style="fill:#FFFFFF;" width="4.379" height="1.368"/>
					<rect x="266.832" y="112.355" style="fill:#FFFFFF;" width="5.148" height="1.368"/>
					<rect x="272.766" y="112.355" style="fill:#FFFFFF;" width="3.249" height="1.368"/>
				</g>
				<g style="opacity:0.9;">
					<g>
						<rect x="259.84" y="109.345" style="fill:#FFFFFF;" width="4.379" height="1.368"/>
						<rect x="266.832" y="109.345" style="fill:#FFFFFF;" width="2.542" height="1.368"/>
						<rect x="275.304" y="109.345" style="fill:#FFFFFF;" width="4.379" height="1.368"/>
						<rect x="270.15" y="109.345" style="fill:#FFFFFF;" width="4.379" height="1.368"/>
					</g>
					<g>
						<rect x="266.832" y="115.366" style="fill:#FFFFFF;" width="3.506" height="1.369"/>
						<rect x="271.192" y="115.366" style="fill:#FFFFFF;" width="4.822" height="1.369"/>
						<rect x="276.869" y="115.366" style="fill:#FFFFFF;" width="3.454" height="1.369"/>
						<rect x="259.84" y="115.366" style="fill:#FFFFFF;" width="4.379" height="1.369"/>
					</g>
				</g>
			</g>
		</g>
	</g>
</g>
<g id="Gun_Model">
	<g>
		<g>
			<rect x="263.371" y="131.966" style="fill:#407BFF;" width="66.072" height="41.53"/>
			<rect x="266.388" y="134.983" style="opacity:0.9;fill:#FFFFFF;" width="60.037" height="35.495"/>
		</g>
		<g>
			<g>
				<g>
					<path style="fill:#263238;" d="M307.679,158.616h-9.313c-1.87,0-3.573-1.176-4.236-2.925l-1.939-5.121l1.756-0.665l1.939,5.12
						c0.388,1.024,1.384,1.712,2.479,1.712h9.313V158.616z"/>
				</g>
				<polygon style="fill:#263238;" points="301.325,150.237 300.308,154.357 302.03,154.357 304.392,150.237 				"/>
			</g>
			<g style="opacity:0.2;">
				<g>
					<path style="fill:#FFFFFF;" d="M307.679,158.616h-9.313c-1.87,0-3.573-1.176-4.236-2.925l-1.939-5.121l1.756-0.665l1.939,5.12
						c0.388,1.024,1.384,1.712,2.479,1.712h9.313V158.616z"/>
				</g>
				<polygon style="fill:#FFFFFF;" points="301.325,150.237 300.308,154.357 302.03,154.357 304.392,150.237 				"/>
			</g>
			<polygon style="fill:#263238;" points="316.899,165.115 309.087,165.115 304.392,150.237 312.203,150.237 			"/>
			<polygon style="opacity:0.4;fill:#FFFFFF;" points="316.899,165.115 309.087,165.115 304.392,150.237 312.203,150.237 			"/>
			<path style="fill:#407BFF;" d="M311.534,163.55L311.534,163.55c-0.463,0-0.872-0.3-1.012-0.742l-2.232-7.071
				c-0.216-0.684,0.295-1.38,1.012-1.38l0,0c0.463,0,0.873,0.3,1.012,0.742l2.231,7.07
				C312.762,162.853,312.251,163.55,311.534,163.55z"/>
			<polygon style="fill:#263238;" points="317.838,167.815 308.148,167.815 309.087,165.115 316.899,165.115 			"/>
			<polygon style="opacity:0.7;fill:#FFFFFF;" points="317.838,167.815 308.148,167.815 309.087,165.115 316.899,165.115 			"/>
			<g>
				<rect x="274.873" y="142.185" style="fill:#263238;" width="2.145" height="7.122"/>
				<rect x="274.873" y="142.185" style="opacity:0.2;fill:#FFFFFF;" width="2.145" height="7.122"/>
			</g>
			<g>
				<polygon style="fill:#263238;" points="277.018,137.646 277.018,140.792 282.044,140.792 282.044,139.337 279.026,137.646 				
					"/>
				<polygon style="opacity:0.7;fill:#FFFFFF;" points="277.018,137.646 277.018,140.792 282.044,140.792 282.044,139.337 
					279.026,137.646 				"/>
			</g>
			<g>
				<rect x="277.018" y="140.792" style="fill:#263238;" width="33.904" height="7.089"/>
				<rect x="277.018" y="140.792" style="opacity:0.6;fill:#FFFFFF;" width="33.904" height="7.089"/>
			</g>
			<g>
				<rect x="277.018" y="147.881" style="fill:#263238;" width="38.931" height="3.545"/>
				<rect x="277.018" y="147.881" style="opacity:0.4;fill:#FFFFFF;" width="38.931" height="3.545"/>
				<g>
					<polygon style="fill:#263238;" points="315.948,147.881 310.922,147.881 310.922,140.792 315.948,143.609 					"/>
					<polygon style="opacity:0.7;fill:#FFFFFF;" points="315.948,147.881 310.922,147.881 310.922,140.792 315.948,143.609 					"/>
				</g>
			</g>
			<polygon style="fill:#407BFF;" points="282.464,146.257 280.821,146.257 281.76,142.811 283.404,142.811 			"/>
			<polygon style="fill:#407BFF;" points="285.047,146.257 283.404,146.257 284.343,142.811 285.986,142.811 			"/>
			<polygon style="fill:#407BFF;" points="287.629,146.257 285.986,146.257 286.925,142.811 288.569,142.811 			"/>
			<polygon style="fill:#407BFF;" points="290.212,146.257 288.569,146.257 289.508,142.811 291.151,142.811 			"/>
			<path style="fill:#407BFF;" d="M314.02,147.881c0,2.819-2.285,5.104-5.104,5.104c-2.819,0-5.104-2.285-5.104-5.104
				c0-2.819,2.285-5.104,5.104-5.104C311.735,142.777,314.02,145.062,314.02,147.881z"/>
			<path style="opacity:0.5;fill:#FFFFFF;" d="M314.02,147.881c0,2.819-2.285,5.104-5.104,5.104c-2.819,0-5.104-2.285-5.104-5.104
				c0-2.819,2.285-5.104,5.104-5.104C311.735,142.777,314.02,145.062,314.02,147.881z"/>
			<path style="fill:#407BFF;" d="M311.7,147.881c0,1.538-1.247,2.784-2.784,2.784c-1.538,0-2.784-1.246-2.784-2.784
				c0-1.538,1.247-2.784,2.784-2.784C310.454,145.097,311.7,146.343,311.7,147.881z"/>
			
				<rect x="308.282" y="146.307" transform="matrix(0.7071 0.7071 -0.7071 0.7071 195.0292 -175.1171)" style="opacity:0.9;fill:#FFFFFF;" width="1.269" height="3.147"/>
		</g>
		<g>
			<path style="fill:#407BFF;" d="M275.516,129.936c-0.22,0-1.066,0-1.286,0c-1.947,0-3.525,1.578-3.525,3.525
				s1.578,3.525,3.525,3.525c0.22,0,1.066,0,1.286,0c1.947,0,3.525-1.578,3.525-3.525S277.463,129.936,275.516,129.936z"/>
			<path style="opacity:0.3;fill:#FFFFFF;" d="M275.516,129.936c-0.22,0-1.066,0-1.286,0c-1.947,0-3.525,1.578-3.525,3.525
				s1.578,3.525,3.525,3.525c0.22,0,1.066,0,1.286,0c1.947,0,3.525-1.578,3.525-3.525S277.463,129.936,275.516,129.936z"/>
			<path style="opacity:0.2;" d="M277.755,133.461c0,1.947-1.578,3.525-3.525,3.525c-1.947,0-3.525-1.578-3.525-3.525
				c0-1.947,1.578-3.525,3.525-3.525C276.177,129.936,277.755,131.514,277.755,133.461z"/>
		</g>
		<g>
			<path style="fill:#407BFF;" d="M321.71,129.936c-0.22,0-1.066,0-1.286,0c-1.947,0-3.525,1.578-3.525,3.525
				s1.578,3.525,3.525,3.525c0.22,0,1.066,0,1.286,0c1.947,0,3.525-1.578,3.525-3.525S323.656,129.936,321.71,129.936z"/>
			<path style="opacity:0.3;fill:#FFFFFF;" d="M321.71,129.936c-0.22,0-1.066,0-1.286,0c-1.947,0-3.525,1.578-3.525,3.525
				s1.578,3.525,3.525,3.525c0.22,0,1.066,0,1.286,0c1.947,0,3.525-1.578,3.525-3.525S323.656,129.936,321.71,129.936z"/>
			<path style="opacity:0.2;" d="M323.948,133.461c0,1.947-1.578,3.525-3.525,3.525c-1.947,0-3.525-1.578-3.525-3.525
				c0-1.947,1.578-3.525,3.525-3.525C322.37,129.936,323.948,131.514,323.948,133.461z"/>
		</g>
	</g>
</g>
<g id="Desk">
	<g>
		<g>
			<path style="fill:#407BFF;" d="M393.737,414.903h1.337c1.028,0,1.862-0.834,1.862-1.862V287.299h-5.061v125.742
				C391.875,414.069,392.709,414.903,393.737,414.903z"/>
			<path style="opacity:0.3;fill:#FFFFFF;" d="M393.737,414.903h1.337c1.028,0,1.862-0.834,1.862-1.862V287.299h-5.061v125.742
				C391.875,414.069,392.709,414.903,393.737,414.903z"/>
			<path style="fill:#407BFF;" d="M393.321,394.259v-2.009c0-0.843-0.683-1.526-1.526-1.526h-87.957v5.061h87.957
				C392.638,395.785,393.321,395.102,393.321,394.259z"/>
			<path style="opacity:0.4;fill:#FFFFFF;" d="M393.321,394.259v-2.009c0-0.843-0.683-1.526-1.526-1.526h-87.957v5.061h87.957
				C392.638,395.785,393.321,395.102,393.321,394.259z"/>
			<path style="fill:#407BFF;" d="M304.268,414.903h1.337c1.028,0,1.862-0.834,1.862-1.862V287.299h-5.061v125.742
				C302.406,414.069,303.24,414.903,304.268,414.903z"/>
			<rect x="391.875" y="287.299" style="opacity:0.2;" width="5.061" height="4.56"/>
			<rect x="302.406" y="287.299" style="opacity:0.2;" width="5.061" height="4.56"/>
		</g>
		<g>
			
				<rect x="187.647" y="278.623" transform="matrix(-1 -1.224647e-16 1.224647e-16 -1 584.5838 565.9219)" style="fill:#407BFF;" width="209.289" height="8.676"/>
			
				<rect x="187.647" y="278.623" transform="matrix(-1 -1.224647e-16 1.224647e-16 -1 584.5838 565.9219)" style="opacity:0.3;fill:#FFFFFF;" width="209.289" height="8.676"/>
			
				<rect x="301.683" y="278.623" transform="matrix(-1 -1.224647e-16 1.224647e-16 -1 698.6197 565.9219)" style="opacity:0.1;" width="95.253" height="8.676"/>
			<g>
				
					<rect x="176.802" y="273.822" transform="matrix(-1 -1.224647e-16 1.224647e-16 -1 584.5839 553.0659)" style="fill:#407BFF;" width="230.98" height="5.423"/>
				
					<rect x="176.802" y="273.822" transform="matrix(-1 -1.224647e-16 1.224647e-16 -1 584.5839 553.0659)" style="opacity:0.5;fill:#FFFFFF;" width="230.98" height="5.423"/>
				
					<rect x="301.683" y="273.822" transform="matrix(-1 -1.224647e-16 1.224647e-16 -1 709.4652 553.0659)" style="opacity:0.2;" width="106.099" height="5.423"/>
			</g>
		</g>
		<path style="opacity:0.3;fill:#FFFFFF;" d="M307.467,287.299h-5.061v125.585c0,1.115,0.904,2.019,2.019,2.019h1.023
			c1.115,0,2.019-0.904,2.019-2.019"/>
		<g>
			<path style="fill:#407BFF;" d="M279.56,414.903h1.337c1.028,0,1.862-0.834,1.862-1.862V287.299h-5.061v125.742
				C277.698,414.069,278.531,414.903,279.56,414.903z"/>
			<path style="opacity:0.3;fill:#FFFFFF;" d="M279.56,414.903h1.337c1.028,0,1.862-0.834,1.862-1.862V287.299h-5.061v125.742
				C277.698,414.069,278.531,414.903,279.56,414.903z"/>
			<path style="fill:#407BFF;" d="M279.144,394.259v-2.009c0-0.843-0.683-1.526-1.526-1.526h-87.957v5.061h87.957
				C278.461,395.785,279.144,395.102,279.144,394.259z"/>
			<path style="opacity:0.4;fill:#FFFFFF;" d="M279.144,394.259v-2.009c0-0.843-0.683-1.526-1.526-1.526h-87.957v5.061h87.957
				C278.461,395.785,279.144,395.102,279.144,394.259z"/>
			<path style="fill:#407BFF;" d="M190.091,414.903h1.338c1.028,0,1.862-0.834,1.862-1.862V287.299h-5.061v125.742
				C188.229,414.069,189.063,414.903,190.091,414.903z"/>
			<rect x="277.698" y="287.299" style="opacity:0.2;" width="5.061" height="4.56"/>
			<rect x="188.229" y="287.299" style="opacity:0.2;" width="5.061" height="4.56"/>
		</g>
		<path style="opacity:0.3;fill:#FFFFFF;" d="M193.29,287.299h-5.061v125.585c0,1.115,0.904,2.019,2.019,2.019h1.023
			c1.115,0,2.019-0.904,2.019-2.019"/>
	</g>
</g>
<g id="Device">
	<g>
		<g>
			<polygon style="fill:#263238;" points="238.437,268.101 272.072,268.101 272.072,274.654 204.802,274.654 204.802,271.322 			"/>
			<polygon style="opacity:0.7;fill:#FFFFFF;" points="238.437,268.101 272.072,268.101 272.072,274.654 204.802,274.654 
				204.802,271.322 			"/>
			<polygon style="opacity:0.5;" points="238.437,274.654 272.072,274.654 272.072,268.101 238.437,271.322 			"/>
		</g>
		<g>
			<rect x="346.669" y="325.936" style="fill:#263238;" width="39.464" height="88.967"/>
			<rect x="346.669" y="325.936" style="opacity:0.3;fill:#FFFFFF;" width="39.464" height="88.967"/>
			<rect x="313.914" y="325.936" style="fill:#263238;" width="39.464" height="88.967"/>
			<rect x="313.914" y="325.936" style="opacity:0.7;fill:#FFFFFF;" width="39.464" height="88.967"/>
			<polygon style="opacity:0.4;fill:#FFFFFF;" points="338.608,351.593 328.683,351.593 313.914,325.936 353.378,325.936 			"/>
			<polygon style="opacity:0.4;fill:#FFFFFF;" points="338.608,363.121 328.683,363.121 313.914,414.903 353.378,414.903 			"/>
			<rect x="328.683" y="351.593" style="opacity:0.7;fill:#FFFFFF;" width="9.925" height="11.528"/>
			<g>
				<g>
					<path style="fill:#407BFF;" d="M333.646,361.13c-0.954,0-1.85-0.372-2.524-1.046c-0.674-0.674-1.046-1.57-1.046-2.524
						c0-0.953,0.371-1.85,1.046-2.524l0.958,0.958c-0.418,0.419-0.649,0.975-0.649,1.566c0,0.592,0.23,1.148,0.649,1.565
						c0.836,0.838,2.294,0.838,3.131,0.001c0.419-0.418,0.649-0.974,0.649-1.566c0-0.591-0.23-1.147-0.649-1.566l0.958-0.958
						c0.675,0.674,1.046,1.571,1.046,2.524c0,0.954-0.372,1.85-1.046,2.525C335.496,360.758,334.6,361.13,333.646,361.13z"/>
				</g>
				<g>
					<rect x="332.968" y="353.584" style="fill:#407BFF;" width="1.356" height="3.315"/>
				</g>
			</g>
		</g>
		<g>
			<g>
				<rect x="214.049" y="253.331" style="fill:#263238;" width="4.562" height="17.532"/>
				<rect x="214.049" y="253.331" style="opacity:0.3;fill:#FFFFFF;" width="4.562" height="17.532"/>
				<path style="fill:#263238;" d="M221.689,267.335h-10.718c-0.463,0-0.922,0.09-1.352,0.265l-8.53,3.476
					c-1.348,0.549-2.23,1.861-2.23,3.317l0,0h34.941l0,0c0-1.456-0.882-2.767-2.23-3.317l-8.53-3.476
					C222.612,267.425,222.153,267.335,221.689,267.335z"/>
				<path style="opacity:0.5;fill:#FFFFFF;" d="M221.689,267.335h-10.718c-0.463,0-0.922,0.09-1.352,0.265l-8.53,3.476
					c-1.348,0.549-2.23,1.861-2.23,3.317l0,0h34.941l0,0c0-1.456-0.882-2.767-2.23-3.317l-8.53-3.476
					C222.612,267.425,222.153,267.335,221.689,267.335z"/>
				<rect x="214.049" y="253.331" style="opacity:0.1;" width="4.562" height="6.429"/>
				<rect x="182.99" y="206.427" style="fill:#263238;" width="66.681" height="49.235"/>
				<rect x="182.99" y="206.427" style="opacity:0.5;fill:#FFFFFF;" width="66.681" height="49.235"/>
				<g>
					<polygon style="fill:#263238;" points="249.671,255.663 252.092,253.493 252.092,208.596 249.671,206.427 					"/>
					<polygon style="opacity:0.3;fill:#FFFFFF;" points="249.671,255.663 252.092,253.493 252.092,208.596 249.671,206.427 					"/>
				</g>
				<rect x="185.701" y="209.139" style="fill:#407BFF;" width="61.258" height="42.728"/>
				<rect x="185.701" y="209.139" style="opacity:0.4;fill:#FFFFFF;" width="61.258" height="42.728"/>
			</g>
			<g>
				<path style="fill:#407BFF;" d="M221.668,234.373c-1.182,1.235-3.256,0.503-3.417-1.199c-0.356-3.772-0.889-6.025-0.099-7.98
					c1.136-2.813,4.338-4.171,7.15-3.035c2.813,1.136,4.172,4.338,3.035,7.15L221.668,234.373z"/>
				<path style="fill:#407BFF;" d="M221.668,233.451c-1.182,1.235-3.256,0.503-3.417-1.199c-0.356-3.772-0.889-6.025-0.099-7.98
					c1.136-2.813,4.338-4.172,7.15-3.035c2.813,1.136,4.172,4.338,3.035,7.15L221.668,233.451z"/>
				<path style="opacity:0.3;fill:#FFFFFF;" d="M221.668,233.451c-1.182,1.235-3.256,0.503-3.417-1.199
					c-0.356-3.772-0.889-6.025-0.099-7.98c1.136-2.813,4.338-4.172,7.15-3.035c2.813,1.136,4.172,4.338,3.035,7.15L221.668,233.451z
					"/>
				<path style="fill:#407BFF;" d="M241.809,234.373c1.182,1.235,3.257,0.503,3.417-1.199c0.355-3.772,0.889-6.025,0.099-7.98
					c-1.136-2.813-4.338-4.171-7.15-3.035c-2.813,1.136-4.172,4.338-3.035,7.15L241.809,234.373z"/>
				<path style="opacity:0.3;fill:#FFFFFF;" d="M241.597,233.451c1.182,1.235,3.257,0.503,3.417-1.199
					c0.355-3.772,0.889-6.025,0.099-7.98c-1.136-2.813-4.338-4.172-7.15-3.035c-2.813,1.136-4.172,4.338-3.035,7.15L241.597,233.451
					z"/>
				<g>
					<g>
						<rect x="223.245" y="226.915" style="fill:#407BFF;" width="16.649" height="4.627"/>
						<rect x="223.245" y="226.915" style="opacity:0.3;fill:#FFFFFF;" width="16.649" height="4.627"/>
						<rect x="223.245" y="221.152" style="fill:#407BFF;" width="16.649" height="7.945"/>
						<rect x="223.245" y="221.152" style="opacity:0.6;fill:#FFFFFF;" width="16.649" height="7.945"/>
					</g>
				</g>
				<path style="fill:#407BFF;" d="M228.337,228.387c-1.136,2.813-4.338,4.171-7.15,3.035c-2.813-1.136-4.171-4.338-3.035-7.15
					c1.136-2.813,4.338-4.172,7.15-3.035C228.115,222.373,229.474,225.575,228.337,228.387z"/>
				<path style="opacity:0.7;fill:#FFFFFF;" d="M228.337,228.387c-1.136,2.813-4.338,4.171-7.15,3.035
					c-2.813-1.136-4.171-4.338-3.035-7.15c1.136-2.813,4.338-4.172,7.15-3.035C228.115,222.373,229.474,225.575,228.337,228.387z"/>
				<path style="fill:#407BFF;" d="M226.462,226.266c0,1.796-1.456,3.251-3.251,3.251c-1.796,0-3.251-1.456-3.251-3.251
					s1.456-3.251,3.251-3.251C225.007,223.015,226.462,224.471,226.462,226.266z"/>
				<path style="opacity:0.3;" d="M226.462,226.266c0,1.796-1.456,3.251-3.251,3.251c-1.796,0-3.251-1.456-3.251-3.251
					s1.456-3.251,3.251-3.251C225.007,223.015,226.462,224.471,226.462,226.266z"/>
				<path style="fill:#407BFF;" d="M234.822,228.387c1.136,2.813,4.338,4.171,7.15,3.035c2.813-1.136,4.171-4.338,3.035-7.15
					c-1.136-2.813-4.338-4.172-7.15-3.035C235.044,222.373,233.686,225.575,234.822,228.387z"/>
				<path style="opacity:0.7;fill:#FFFFFF;" d="M234.822,228.387c1.136,2.813,4.338,4.171,7.15,3.035
					c2.813-1.136,4.171-4.338,3.035-7.15c-1.136-2.813-4.338-4.172-7.15-3.035C235.044,222.373,233.686,225.575,234.822,228.387z"/>
				<rect x="230.123" y="223.897" style="fill:#407BFF;" width="2.892" height="0.854"/>
				<g>
					<path style="fill:#407BFF;" d="M238.392,225.112c0.092,0.476-0.218,0.936-0.694,1.029c-0.476,0.092-0.936-0.218-1.029-0.694
						c-0.093-0.476,0.218-0.936,0.694-1.029C237.839,224.326,238.299,224.637,238.392,225.112z"/>
					<path style="fill:#407BFF;" d="M240.475,224.615c0.092,0.476-0.218,0.936-0.694,1.029c-0.476,0.092-0.936-0.218-1.029-0.694
						c-0.092-0.476,0.218-0.936,0.694-1.029C239.921,223.828,240.382,224.139,240.475,224.615z"/>
					<path style="fill:#407BFF;" d="M238.926,227.863c0.092,0.476-0.218,0.936-0.694,1.029c-0.476,0.092-0.936-0.218-1.029-0.694
						c-0.092-0.476,0.218-0.936,0.694-1.029C238.373,227.077,238.834,227.388,238.926,227.863z"/>
					<path style="fill:#407BFF;" d="M241.009,227.365c0.092,0.476-0.218,0.936-0.694,1.029c-0.476,0.092-0.936-0.218-1.029-0.694
						c-0.092-0.476,0.218-0.936,0.694-1.029C240.456,226.579,240.917,226.89,241.009,227.365z"/>
					<path style="fill:#407BFF;" d="M242.583,224.169c0.093,0.476-0.218,0.936-0.694,1.029c-0.476,0.092-0.936-0.218-1.029-0.694
						c-0.092-0.476,0.218-0.936,0.694-1.029C242.03,223.382,242.491,223.693,242.583,224.169z"/>
					<path style="fill:#407BFF;" d="M243.118,226.92c0.092,0.476-0.218,0.936-0.694,1.029c-0.476,0.092-0.936-0.218-1.029-0.694
						c-0.092-0.476,0.218-0.936,0.694-1.029C242.565,226.133,243.026,226.444,243.118,226.92z"/>
				</g>
				<path style="opacity:0.3;fill:#407BFF;" d="M225.139,226.252c0,1.065-0.863,1.928-1.928,1.928c-1.065,0-1.928-0.863-1.928-1.928
					c0-1.065,0.863-1.928,1.928-1.928C224.276,224.324,225.139,225.187,225.139,226.252z"/>
			</g>
			<g>
				<rect x="188.394" y="214.568" style="fill:#263238;" width="27.927" height="32.358"/>
				<rect x="188.394" y="214.568" style="opacity:0.5;fill:#FFFFFF;" width="27.927" height="32.358"/>
				<rect x="189.202" y="216.932" width="26.311" height="28.862"/>
				<g>
					<rect x="192.617" y="220.031" style="fill:#407BFF;" width="3.904" height="1.22"/>
					<rect x="197.212" y="220.031" style="fill:#407BFF;" width="3.904" height="1.22"/>
					<rect x="206.404" y="220.031" style="fill:#407BFF;" width="3.904" height="1.22"/>
					<rect x="207.798" y="222.715" style="fill:#407BFF;" width="4.299" height="1.22"/>
					<rect x="199.165" y="225.4" style="fill:#407BFF;" width="2.812" height="1.22"/>
					<rect x="202.738" y="225.4" style="fill:#407BFF;" width="4.299" height="1.22"/>
					<rect x="207.798" y="225.4" style="fill:#407BFF;" width="3.079" height="1.22"/>
					<rect x="197.677" y="230.768" style="fill:#407BFF;" width="5.322" height="1.22"/>
					<rect x="203.76" y="230.768" style="fill:#407BFF;" width="3.277" height="1.22"/>
					<rect x="203.714" y="236.137" style="fill:#407BFF;" width="4.299" height="1.22"/>
					<rect x="208.775" y="236.137" style="fill:#407BFF;" width="3.323" height="1.22"/>
					<rect x="192.617" y="241.505" style="fill:#407BFF;" width="4.299" height="1.22"/>
					<g>
						<g>
							<rect x="196.521" y="222.715" style="fill:#407BFF;" width="6.859" height="1.22"/>
							<rect x="196.902" y="228.084" style="fill:#407BFF;" width="5.075" height="1.22"/>
							<rect x="207.798" y="230.768" style="fill:#407BFF;" width="4.299" height="1.22"/>
							<rect x="196.701" y="233.452" style="fill:#407BFF;" width="4.299" height="1.22"/>
							<rect x="201.762" y="233.452" style="fill:#407BFF;" width="4.299" height="1.22"/>
							<rect x="192.617" y="236.137" style="fill:#407BFF;" width="4.299" height="1.22"/>
							<rect x="202.738" y="238.821" style="fill:#407BFF;" width="3.323" height="1.22"/>
							<rect x="206.822" y="238.821" style="fill:#407BFF;" width="5.275" height="1.22"/>
							<rect x="197.677" y="241.505" style="fill:#407BFF;" width="5.275" height="1.22"/>
						</g>
						<g style="opacity:0.5;">
							<rect x="196.521" y="222.715" style="fill:#FFFFFF;" width="6.859" height="1.22"/>
							<rect x="196.902" y="228.084" style="fill:#FFFFFF;" width="5.075" height="1.22"/>
							<rect x="207.798" y="230.768" style="fill:#FFFFFF;" width="4.299" height="1.22"/>
							<rect x="196.701" y="233.452" style="fill:#FFFFFF;" width="4.299" height="1.22"/>
							<rect x="201.762" y="233.452" style="fill:#FFFFFF;" width="4.299" height="1.22"/>
							<rect x="192.617" y="236.137" style="fill:#FFFFFF;" width="4.299" height="1.22"/>
							<rect x="202.738" y="238.821" style="fill:#FFFFFF;" width="3.323" height="1.22"/>
							<rect x="206.822" y="238.821" style="fill:#FFFFFF;" width="5.275" height="1.22"/>
							<rect x="197.677" y="241.505" style="fill:#FFFFFF;" width="5.275" height="1.22"/>
						</g>
					</g>
					<g>
						<g>
							<rect x="201.808" y="220.031" style="fill:#407BFF;" width="3.904" height="1.22"/>
							<rect x="204.141" y="222.715" style="fill:#407BFF;" width="2.896" height="1.22"/>
							<rect x="192.617" y="225.4" style="fill:#407BFF;" width="5.787" height="1.22"/>
							<rect x="202.738" y="228.084" style="fill:#407BFF;" width="5.238" height="1.22"/>
							<rect x="208.737" y="228.084" style="fill:#407BFF;" width="3.361" height="1.22"/>
							<rect x="192.617" y="230.768" style="fill:#407BFF;" width="4.299" height="1.22"/>
							<rect x="206.822" y="233.452" style="fill:#407BFF;" width="4.299" height="1.22"/>
							<rect x="197.677" y="236.137" style="fill:#407BFF;" width="5.275" height="1.22"/>
							<rect x="198.653" y="238.821" style="fill:#407BFF;" width="3.323" height="1.22"/>
							<rect x="203.714" y="241.505" style="fill:#407BFF;" width="4.299" height="1.22"/>
						</g>
						<g style="opacity:0.4;">
							<rect x="201.808" y="220.031" width="3.904" height="1.22"/>
							<rect x="204.141" y="222.715" width="2.896" height="1.22"/>
							<rect x="192.617" y="225.4" width="5.787" height="1.22"/>
							<rect x="202.738" y="228.084" width="5.238" height="1.22"/>
							<rect x="208.737" y="228.084" width="3.361" height="1.22"/>
							<rect x="192.617" y="230.768" width="4.299" height="1.22"/>
							<rect x="206.822" y="233.452" width="4.299" height="1.22"/>
							<rect x="197.677" y="236.137" width="5.275" height="1.22"/>
							<rect x="198.653" y="238.821" width="3.323" height="1.22"/>
							<rect x="203.714" y="241.505" width="4.299" height="1.22"/>
						</g>
					</g>
					<rect x="208.775" y="241.505" style="fill:#407BFF;" width="2.347" height="1.22"/>
				</g>
			</g>
		</g>
		<g>
			<g>
				<g>
					<rect x="351.241" y="253.331" style="fill:#263238;" width="4.562" height="17.532"/>
					<rect x="351.241" y="253.331" style="opacity:0.3;fill:#FFFFFF;" width="4.562" height="17.532"/>
					<path style="fill:#263238;" d="M358.881,267.335h-10.718c-0.463,0-0.922,0.09-1.351,0.265l-8.53,3.476
						c-1.348,0.549-2.23,1.861-2.23,3.317l0,0h34.941l0,0c0-1.456-0.882-2.767-2.23-3.317l-8.53-3.476
						C359.804,267.425,359.345,267.335,358.881,267.335z"/>
					<path style="opacity:0.5;fill:#FFFFFF;" d="M358.881,267.335h-10.718c-0.463,0-0.922,0.09-1.351,0.265l-8.53,3.476
						c-1.348,0.549-2.23,1.861-2.23,3.317l0,0h34.941l0,0c0-1.456-0.882-2.767-2.23-3.317l-8.53-3.476
						C359.804,267.425,359.345,267.335,358.881,267.335z"/>
					<rect x="351.241" y="253.331" style="opacity:0.1;" width="4.562" height="6.429"/>
					<rect x="320.182" y="206.427" style="fill:#263238;" width="66.681" height="49.235"/>
					<rect x="320.182" y="206.427" style="opacity:0.5;fill:#FFFFFF;" width="66.681" height="49.235"/>
					<g>
						<polygon style="fill:#263238;" points="386.862,255.663 389.283,253.493 389.283,208.596 386.862,206.427 						"/>
						<polygon style="opacity:0.3;fill:#FFFFFF;" points="386.862,255.663 389.283,253.493 389.283,208.596 386.862,206.427 						
							"/>
					</g>
					<rect x="322.893" y="209.139" style="fill:#407BFF;" width="61.258" height="42.728"/>
					<rect x="322.893" y="209.139" style="opacity:0.6;fill:#FFFFFF;" width="61.258" height="42.728"/>
				</g>
				<g>
					<path style="fill:#407BFF;" d="M377.48,209.003h-0.271h-6.535h-0.271h-6.535h-0.271h-6.535h-0.271h-6.535h-0.271h-6.535h-0.271
						h-6.535h-0.271h-6.535h-0.271h-6.806v7.121v0.271v6.85v0.271v6.85v0.271v6.851v0.271v6.85v0.271v7.12h6.806h0.271h6.535h0.271
						h6.535h0.271h6.535h0.271h6.535h0.271h6.535h0.271h6.535h0.271h6.535h0.271h6.806v-7.12v-0.271v-6.85v-0.271v-6.851v-0.271
						v-6.85v-0.271v-6.85v-0.271v-7.121H377.48z M370.674,209.275h6.535v6.85h-6.535V209.275z M377.209,223.246h-6.535v-6.85h6.535
						V223.246z M377.209,230.368h-6.535v-6.85h6.535V230.368z M377.209,237.489h-6.535v-6.851h6.535V237.489z M377.209,244.611
						h-6.535v-6.85h6.535V244.611z M329.835,237.76h6.535v6.85h-6.535V237.76z M329.835,230.639h6.535v6.851h-6.535V230.639z
						 M329.835,223.517h6.535v6.85h-6.535V223.517z M329.835,216.396h6.535v6.85h-6.535V216.396z M370.402,223.246h-6.535v-6.85
						h6.535V223.246z M370.402,230.368h-6.535v-6.85h6.535V230.368z M370.402,237.489h-6.535v-6.851h6.535V237.489z
						 M336.641,230.639h6.535v6.851h-6.535V230.639z M336.641,223.517h6.535v6.85h-6.535V223.517z M363.596,230.368h-6.535v-6.85
						h6.535V230.368z M356.789,230.368h-6.535v-6.85h6.535V230.368z M349.983,230.368h-6.535v-6.85h6.535V230.368z M343.448,230.639
						h6.535v6.851h-6.535V230.639z M350.254,230.639h6.535v6.851h-6.535V230.639z M357.061,230.639h6.535v6.851h-6.535V230.639z
						 M363.596,223.246h-6.535v-6.85h6.535V223.246z M356.789,223.246h-6.535v-6.85h6.535V223.246z M349.983,223.246h-6.535v-6.85
						h6.535V223.246z M343.177,223.246h-6.535v-6.85h6.535V223.246z M336.641,237.76h6.535v6.85h-6.535V237.76z M343.448,237.76
						h6.535v6.85h-6.535V237.76z M350.254,237.76h6.535v6.85h-6.535V237.76z M357.061,237.76h6.535v6.85h-6.535V237.76z
						 M363.867,237.76h6.535v6.85h-6.535V237.76z M363.867,209.275h6.535v6.85h-6.535V209.275z M357.061,209.275h6.535v6.85h-6.535
						V209.275z M350.254,209.275h6.535v6.85h-6.535V209.275z M343.448,209.275h6.535v6.85h-6.535V209.275z M336.641,209.275h6.535
						v6.85h-6.535V209.275z M329.835,209.275h6.535v6.85h-6.535V209.275z M323.029,209.275h6.535v6.85h-6.535V209.275z
						 M323.029,216.396h6.535v6.85h-6.535V216.396z M323.029,223.517h6.535v6.85h-6.535V223.517z M323.029,230.639h6.535v6.851
						h-6.535V230.639z M323.029,237.76h6.535v6.85h-6.535V237.76z M329.564,251.731h-6.535v-6.849h6.535V251.731z M336.37,251.731
						h-6.535v-6.849h6.535V251.731z M343.177,251.731h-6.535v-6.849h6.535V251.731z M349.983,251.731h-6.535v-6.849h6.535V251.731z
						 M356.789,251.731h-6.535v-6.849h6.535V251.731z M363.596,251.731h-6.535v-6.849h6.535V251.731z M370.402,251.731h-6.535
						v-6.849h6.535V251.731z M377.209,251.731h-6.535v-6.849h6.535V251.731z M384.015,251.731h-6.535v-6.849h6.535V251.731z
						 M384.015,244.611h-6.535v-6.85h6.535V244.611z M384.015,237.489h-6.535v-6.851h6.535V237.489z M384.015,230.368h-6.535v-6.85
						h6.535V230.368z M384.015,223.246h-6.535v-6.85h6.535V223.246z M377.48,216.125v-6.85h6.535v6.85H377.48z"/>
				</g>
				<path style="fill:#FFFFFF;" d="M374.637,214.155h-8.54l-1.985,3.438h-4.184v-1.87h-15.726v9.333h-5.125
					c-2.186,0-3.958,1.772-3.958,3.958s1.772,3.958,3.958,3.958h5.125v10.307h8.541v6.251h4.609v0.071h7.1v-4.609h-7.1v-1.712h2.576
					v-17.77h4.184l1.985,3.438h8.54l4.27-7.396L374.637,214.155z"/>
				<path style="fill:#263238;" d="M364.858,250.007h-7.913v-0.071h-4.609v-6.25h-8.541v-10.307h-4.718
					c-2.407,0-4.365-1.958-4.365-4.365c0-2.406,1.958-4.365,4.365-4.365h4.718v-9.333h16.539v1.87h3.542l1.985-3.438h9.01
					l4.505,7.803l-4.505,7.803h-9.01l-1.985-3.438h-3.542v17.77h-2.576v0.898h7.099V250.007z M357.759,249.193h6.286v-3.796h-7.099
					v-2.525h2.576v-17.77h4.825l1.985,3.438h8.072l4.035-6.989l-4.035-6.99h-8.072L364.346,218h-4.825v-1.87h-14.913v9.333h-5.532
					c-1.958,0-3.551,1.593-3.551,3.551c0,1.958,1.593,3.551,3.551,3.551h5.532v10.307h8.541v6.25h4.609V249.193z"/>
				<g>
					<path style="fill:#263238;" d="M357.759,237.956h-3.931v-9.801h3.931V237.956z M354.641,237.143h2.305v-8.174h-2.305V237.143z"
						/>
				</g>
				<g>
					<path style="fill:#263238;" d="M372.642,224.037h-4.479v-4.478h4.479V224.037z M368.977,223.223h2.852v-2.851h-2.852V223.223z"
						/>
				</g>
			</g>
			<g>
				<polygon style="fill:#407BFF;" points="348.474,221.798 347.66,217.777 354.122,221.798 				"/>
				<polygon style="opacity:0.7;fill:#FFFFFF;" points="348.474,221.798 347.66,217.777 354.122,221.798 				"/>
				<polygon style="fill:#407BFF;" points="348.474,221.798 347.66,225.819 354.122,221.798 				"/>
				<polygon style="opacity:0.3;" points="348.474,221.798 347.66,225.819 354.122,221.798 				"/>
			</g>
			<g>
				<g>
					<rect x="326.194" y="239.261" style="fill:#263238;" width="23.309" height="10.022"/>
					<rect x="326.194" y="239.261" style="opacity:0.5;fill:#FFFFFF;" width="23.309" height="10.022"/>
					<rect x="326.869" y="241.234" width="21.96" height="7.104"/>
				</g>
				<g>
					<rect x="329.772" y="242.881" style="fill:#407BFF;" width="3.259" height="1.018"/>
					<rect x="334.975" y="242.881" style="fill:#407BFF;" width="1.891" height="1.018"/>
					<rect x="341.279" y="242.881" style="fill:#407BFF;" width="3.259" height="1.018"/>
					<rect x="342.443" y="245.122" style="fill:#407BFF;" width="3.588" height="1.018"/>
					<rect x="329.772" y="245.122" style="fill:#407BFF;" width="3.259" height="1.018"/>
					<rect x="334.975" y="245.122" style="fill:#407BFF;" width="3.831" height="1.018"/>
					<rect x="337.443" y="242.881" style="fill:#407BFF;" width="3.259" height="1.018"/>
					<rect x="339.39" y="245.122" style="fill:#407BFF;" width="2.417" height="1.018"/>
				</g>
			</g>
		</g>
		<g>
			<g>
				<rect x="279.145" y="249.645" style="fill:#263238;" width="5.429" height="20.864"/>
				<rect x="279.145" y="249.645" style="fill:#263238;" width="5.429" height="20.864"/>
				<path style="fill:#263238;" d="M288.238,266.31h-12.756c-0.551,0-1.098,0.107-1.608,0.315l-10.151,4.136
					c-1.605,0.654-2.654,2.214-2.654,3.947l0,0h41.583l0,0c0-1.733-1.049-3.293-2.654-3.947l-10.152-4.136
					C289.335,266.417,288.789,266.31,288.238,266.31z"/>
				<rect x="279.145" y="249.645" style="opacity:0.1;" width="5.429" height="5.91"/>
				<rect x="242.182" y="193.826" style="fill:#263238;" width="79.355" height="58.593"/>
				<rect x="242.182" y="193.826" style="opacity:0.2;fill:#FFFFFF;" width="79.355" height="58.593"/>
				<polygon style="fill:#263238;" points="321.537,252.42 324.625,249.838 324.625,196.408 321.537,193.826 				"/>
				<g>
					<g>
						<g>
							<polygon style="fill:#407BFF;" points="295.233,213.78 268.487,213.78 245.615,197.801 318.104,197.801 							"/>
							<polygon style="opacity:0.3;fill:#FFFFFF;" points="295.233,213.78 268.487,213.78 245.615,197.801 318.104,197.801 							
								"/>
						</g>
						<g>
							<polygon style="fill:#407BFF;" points="295.233,232.466 268.487,232.466 245.615,248.445 318.104,248.445 							"/>
							<polygon style="opacity:0.5;fill:#FFFFFF;" points="295.233,232.466 268.487,232.466 245.615,248.445 318.104,248.445 
															"/>
						</g>
						<g>
							<polygon style="fill:#407BFF;" points="295.233,232.466 295.233,213.78 318.104,197.801 318.104,248.445 							"/>
							<polygon style="opacity:0.2;fill:#FFFFFF;" points="295.233,232.466 295.233,213.78 318.104,197.801 318.104,248.445 							
								"/>
						</g>
						<g>
							<polygon style="fill:#407BFF;" points="268.487,232.466 268.487,213.78 245.615,197.801 245.615,248.445 							"/>
							<polygon style="opacity:0.2;fill:#FFFFFF;" points="268.487,232.466 268.487,213.78 245.615,197.801 245.615,248.445 							
								"/>
						</g>
						<g>
							<rect x="268.487" y="213.78" style="fill:#407BFF;" width="26.746" height="18.686"/>
							<rect x="268.487" y="213.78" style="opacity:0.7;fill:#FFFFFF;" width="26.746" height="18.686"/>
						</g>
					</g>
					<path style="fill:#407BFF;" d="M318.104,248.445v-4.59c-2.178-1.749-5.227-3.467-7.013-1.307
						c-1.681,2.033-2.226,4.068-1.974,5.898H318.104z"/>
					<path style="fill:#FF8B7B;" d="M306.634,248.445h4.384l1.881-6.666c0,0-3.636-5.113-10.168-7.592
						c-6.532-2.479-5.117,8.473-3.067,10.371C300.798,245.608,303.998,247.216,306.634,248.445z"/>
					<g>
						<polygon style="fill:#263238;" points="308.483,248.445 307.069,235.611 304.087,235.611 302.674,248.445 						"/>
						<polygon style="opacity:0.2;fill:#FFFFFF;" points="308.483,248.445 307.069,235.611 304.087,235.611 302.674,248.445 						
							"/>
						<polygon style="fill:#263238;" points="305.755,248.445 304.342,235.611 301.359,235.611 299.946,248.445 						"/>
						<polygon style="opacity:0.4;fill:#FFFFFF;" points="305.755,248.445 304.342,235.611 301.359,235.611 299.946,248.445 						
							"/>
					</g>
					<path style="fill:#FF8B7B;" d="M302.599,234.933c0,0,1.42,0.938,2.03,5.926c0.61,4.988-1.356,5.123-2.711,4.513
						c-1.356-0.61-2.253-0.983-2.253-0.983S297.384,233.78,302.599,234.933z"/>
					<path style="fill:#FF8B7B;" d="M307.205,248.185l0.538,0.26h1.502l-0.752-9.242c0,0-3.524-3.333-3.863,1.655
						C304.29,245.846,307.205,248.185,307.205,248.185z"/>
					<g>
						<polygon style="fill:#263238;" points="311.34,228.561 297.483,221.551 293.859,221.551 292.666,225.438 292.666,228.561 
							304.494,238.525 313.034,238.525 313.034,234.085 						"/>
						<polygon style="opacity:0.5;fill:#FFFFFF;" points="311.34,228.561 297.483,221.551 293.859,221.551 292.666,225.438 
							292.666,228.561 304.494,238.525 313.034,238.525 313.034,234.085 						"/>
						<polygon style="opacity:0.3;" points="311.34,228.561 306.188,228.561 304.494,234.085 304.494,238.525 313.034,238.525 
							313.034,234.085 						"/>
						<polygon style="opacity:0.1;" points="310.604,229.984 306.924,229.984 305.714,233.93 305.714,234.933 311.814,234.933 
							311.814,233.93 						"/>
						<polygon style="fill:#407BFF;" points="306.924,229.984 305.714,233.93 305.714,234.236 311.117,234.236 311.117,233.234 
							310.121,229.984 						"/>
						<polygon style="opacity:0.2;" points="306.924,229.984 305.714,233.93 305.714,234.236 311.117,234.236 311.117,233.234 
							310.121,229.984 						"/>
						<polygon style="opacity:0.5;fill:#FFFFFF;" points="306.188,228.561 311.34,228.561 297.483,221.551 293.859,221.551 						
							"/>
						<polygon style="opacity:0.2;" points="292.666,225.438 292.666,228.561 304.494,238.525 304.494,234.085 						"/>
						<g>
							<polygon style="fill:#407BFF;" points="296.411,227.479 297.404,224.242 297.941,224.547 296.926,227.855 							"/>
							<polygon style="fill:#407BFF;" points="295.38,226.725 296.329,223.63 296.866,223.936 295.895,227.102 							"/>
							<polygon style="fill:#407BFF;" points="294.349,225.971 295.254,223.02 295.792,223.325 294.864,226.348 							"/>
						</g>
						<g>
							<polygon style="fill:#263238;" points="297.448,221.064 296.349,218.841 295.79,218.841 295.29,220.471 295.29,221.78 
								296.919,222.533 297.698,222.533 297.698,221.878 							"/>
							<polygon style="opacity:0.5;fill:#FFFFFF;" points="297.448,221.064 296.349,218.841 295.79,218.841 295.29,220.471 
								295.29,221.78 296.919,222.533 297.698,222.533 297.698,221.878 							"/>
							<polygon style="opacity:0.2;" points="297.448,221.064 297.168,221.064 296.918,221.878 296.918,222.533 297.698,222.533 
								297.698,221.878 							"/>
							<polygon style="opacity:0.5;fill:#FFFFFF;" points="297.168,221.064 297.448,221.064 297.448,221.064 296.349,218.841 
								295.79,218.841 							"/>
						</g>
					</g>
					<g>
						<path style="fill:#407BFF;" d="M287.723,222.716h-2.044c-0.192-1.8-1.612-3.221-3.413-3.413v-2.044h-0.813v2.044
							c-1.8,0.192-3.221,1.613-3.413,3.413h-2.044v0.813h2.044c0.192,1.8,1.612,3.221,3.413,3.413v2.044h0.813v-2.044
							c1.8-0.192,3.221-1.613,3.413-3.413h2.044V222.716z M282.267,226.4v-1.918h-0.813v1.918c-1.502-0.186-2.684-1.369-2.87-2.87
							h1.918v-0.813h-1.918c0.186-1.502,1.369-2.684,2.87-2.87v1.918h0.813v-1.918c1.502,0.186,2.684,1.368,2.87,2.87h-1.918v0.813
							h1.918C284.951,225.031,283.768,226.214,282.267,226.4z"/>
						<path style="opacity:0.2;" d="M287.723,222.716h-2.044c-0.192-1.8-1.612-3.221-3.413-3.413v-2.044h-0.813v2.044
							c-1.8,0.192-3.221,1.613-3.413,3.413h-2.044v0.813h2.044c0.192,1.8,1.612,3.221,3.413,3.413v2.044h0.813v-2.044
							c1.8-0.192,3.221-1.613,3.413-3.413h2.044V222.716z M282.267,226.4v-1.918h-0.813v1.918c-1.502-0.186-2.684-1.369-2.87-2.87
							h1.918v-0.813h-1.918c0.186-1.502,1.369-2.684,2.87-2.87v1.918h0.813v-1.918c1.502,0.186,2.684,1.368,2.87,2.87h-1.918v0.813
							h1.918C284.951,225.031,283.768,226.214,282.267,226.4z"/>
					</g>
				</g>
			</g>
			<g>
				<g style="opacity:0.9;">
					<rect x="262.603" y="204.301" style="fill:#FFFFFF;" width="2.89" height="0.82"/>
					<rect x="252.397" y="204.301" style="fill:#FFFFFF;" width="2.625" height="0.82"/>
					<rect x="256.588" y="204.301" style="fill:#FFFFFF;" width="3.086" height="0.82"/>
					<rect x="260.144" y="204.301" style="fill:#FFFFFF;" width="1.947" height="0.82"/>
				</g>
				<g style="opacity:0.9;">
					<g>
						<rect x="252.397" y="202.496" style="fill:#FFFFFF;" width="2.625" height="0.82"/>
						<rect x="256.588" y="202.496" style="fill:#FFFFFF;" width="1.523" height="0.82"/>
						<rect x="261.665" y="202.496" style="fill:#FFFFFF;" width="2.625" height="0.82"/>
						<rect x="258.576" y="202.496" style="fill:#FFFFFF;" width="2.625" height="0.82"/>
					</g>
					<g>
						<rect x="256.588" y="206.105" style="fill:#FFFFFF;" width="2.101" height="0.82"/>
						<rect x="259.201" y="206.105" style="fill:#FFFFFF;" width="2.89" height="0.82"/>
						<rect x="262.603" y="206.105" style="fill:#FFFFFF;" width="2.07" height="0.82"/>
						<rect x="252.397" y="206.105" style="fill:#FFFFFF;" width="2.625" height="0.82"/>
					</g>
				</g>
			</g>
		</g>
	</g>
	<g id="Keyboard">
	</g>
	<g id="Computer">
	</g>
</g>
<g id="Character">
	<g>
		<g>
			<g>
				<path style="fill:#263238;" d="M179.082,193.38c0,0,8.844,2.543,8.644-2.65c-0.2-5.192-7.662,0.217-9.642-1.148
					C176.105,188.217,179.082,193.38,179.082,193.38z"/>
				<path style="opacity:0.6;" d="M179.082,193.38c0,0,8.844,2.543,8.644-2.65c-0.2-5.192-7.662,0.217-9.642-1.148
					C176.105,188.217,179.082,193.38,179.082,193.38z"/>
			</g>
			<g>
				<polygon style="fill:#FF8B7B;" points="214.817,386.687 213.758,406.125 206.707,406.667 204.855,386.815 				"/>
				<g>
					<path style="fill:#407BFF;" d="M215.025,406.053c-0.076-0.011-0.137-0.065-0.157-0.139c-0.019-0.074,0.011-0.153,0.075-0.195
						c0.113-0.076,2.682-1.792,3.988-1.53c0.243,0.045,0.459,0.184,0.602,0.385c0.188,0.222,0.216,0.538,0.069,0.789
						c-0.287,0.432-1.261,0.676-2.215,0.743C216.6,406.158,215.81,406.14,215.025,406.053z M215.597,405.768
						c1.44,0.077,3.374-0.071,3.695-0.595c0.047-0.065,0.087-0.178-0.064-0.395c-0.083-0.129-0.221-0.214-0.374-0.229
						c-0.115-0.024-0.233-0.031-0.351-0.021C217.465,404.754,216.479,405.175,215.597,405.768z"/>
					<path style="fill:#407BFF;" d="M214.928,406.049c-0.057-0.032-0.093-0.093-0.093-0.159c0.004-0.097,0.063-2.181,0.984-3.052
						c0.264-0.257,0.622-0.394,0.99-0.381c0.504,0.015,0.678,0.257,0.711,0.464c0.224,0.852-1.503,2.644-2.392,3.115
						c-0.023,0.013-0.049,0.018-0.075,0.012C215.014,406.064,214.969,406.065,214.928,406.049z M216.712,402.81
						c-0.23,0.014-0.448,0.111-0.612,0.272c-0.526,0.701-0.824,1.547-0.854,2.424c0.912-0.629,2.029-2.015,1.946-2.532
						c-0.017-0.046-0.048-0.176-0.376-0.18L216.712,402.81L216.712,402.81z"/>
					<path style="fill:#263238;" d="M214.167,405.034l-8.375,0.587c-0.316,0.022-0.574,0.26-0.621,0.573l-1.037,6.919
						c-0.097,0.613,0.322,1.188,0.936,1.285c0.079,0.012,0.158,0.016,0.238,0.012c3.015-0.264,5.688-0.617,9.447-0.875
						c4.436-0.31,3.347,0.3,8.568,0.009c3.145-0.179,3.47-3.79,2.125-3.873c-6.151-0.34-6.914-2.137-9.419-4.155
						C215.488,405.132,214.825,404.961,214.167,405.034z"/>
				</g>
				<polygon style="opacity:0.1;" points="214.11,399.672 206.057,399.697 205.325,391.857 214.542,391.739 				"/>
				<path style="fill:#407BFF;" d="M139.057,301.049c0,0-4.114,20.409,13.042,24.212c17.156,3.803,48.954-0.322,48.954-0.322
					s-3.637,11.085,4.301,70.918l9.486,0.007c0,0,8.828-67.265,3.093-77.74C212.199,307.649,177.67,302.641,139.057,301.049z"/>
				<path style="fill:#407BFF;" d="M139.057,301.049c0,0-4.114,20.409,13.042,24.212c17.156,3.803,48.954-0.322,48.954-0.322
					s-3.637,11.085,4.301,70.918l9.486,0.007c0,0,8.828-67.265,3.093-77.74C212.199,307.649,177.67,302.641,139.057,301.049z"/>
				<path style="opacity:0.2;" d="M217.21,317.036c0.274,0.357,0.521,0.718,0.724,1.088c2.91,5.314,2.07,25.246,0.538,43.596
					c-7.114-22.322-6.691-27.963-6.691-27.963s-4.691-0.301-11.512-0.669c0.176-6.289,0.784-8.148,0.784-8.148
					S211.902,314.54,217.21,317.036z"/>
				<g>
					<polygon style="fill:#407BFF;" points="215.806,393.243 215.279,397.009 204.861,397.022 204.344,393.409 					"/>
					<polygon style="opacity:0.3;fill:#FFFFFF;" points="215.806,393.243 215.279,397.009 204.861,397.022 204.344,393.409 					"/>
				</g>
			</g>
			<g>
				<polygon style="fill:#FF8B7B;" points="245.273,405.052 238.918,406.267 236.402,397.612 234.015,389.424 232.92,385.65 
					242.258,383.253 242.66,386.181 243.972,395.682 				"/>
				<g>
					<path style="fill:#407BFF;" d="M246.09,405.623c-0.073-0.021-0.127-0.084-0.137-0.159c-0.009-0.076,0.032-0.15,0.101-0.183
						c0.122-0.06,2.902-1.409,4.16-0.971c0.235,0.078,0.43,0.245,0.544,0.464c0.156,0.245,0.141,0.563-0.039,0.792
						c-0.344,0.389-1.342,0.497-2.295,0.433C247.636,405.941,246.856,405.816,246.09,405.623z M246.695,405.418
						c1.416,0.273,3.352,0.391,3.742-0.085c0.056-0.058,0.111-0.164-0.009-0.4c-0.065-0.139-0.19-0.242-0.34-0.278
						c-0.111-0.039-0.227-0.063-0.345-0.068C248.684,404.67,247.65,404.951,246.695,405.418z"/>
					<path style="fill:#407BFF;" d="M245.995,405.606c-0.053-0.039-0.08-0.105-0.07-0.17c0.017-0.096,0.361-2.152,1.392-2.889
						c0.297-0.218,0.67-0.306,1.033-0.243c0.497,0.084,0.637,0.347,0.641,0.557c0.106,0.874-1.85,2.414-2.795,2.759
						c-0.024,0.01-0.051,0.011-0.076,0.002C246.077,405.632,246.033,405.626,245.995,405.606z M248.204,402.641
						c-0.23-0.018-0.459,0.048-0.643,0.186c-0.617,0.623-1.028,1.42-1.177,2.284c0.989-0.499,2.286-1.719,2.274-2.242
						c-0.01-0.048-0.023-0.181-0.348-0.23L248.204,402.641L248.204,402.641z"/>
					<path style="fill:#263238;" d="M245.379,404.496l-8.376-0.563c-0.316-0.021-0.604,0.179-0.694,0.483l-1.972,6.713
						c-0.179,0.594,0.157,1.221,0.751,1.4c0.076,0.023,0.155,0.038,0.234,0.044c3.023,0.15,5.719,0.166,9.478,0.423
						c4.437,0.299,3.275,0.755,8.486,1.179c3.14,0.253,3.955-3.281,2.635-3.546c-6.047-1.178-6.557-3.062-8.762-5.403
						C246.674,404.774,246.042,404.513,245.379,404.496z"/>
				</g>
				<polygon style="opacity:0.1;" points="244.145,395.638 243.972,395.682 236.402,397.612 234.015,389.424 242.66,386.181 
					242.692,386.17 				"/>
			</g>
			<path style="fill:#407BFF;" d="M144.306,302.301c0,0-2.196,22.823,15.372,22.434c17.568-0.39,53.928,1.947,53.928,1.947
				s-0.894,11.632,21.059,67.855l9.215-2.252c0,0-6.46-69.717-14.524-78.526C221.293,304.951,182.188,294.657,144.306,302.301z"/>
			<polygon style="fill:#407BFF;" points="244.738,389.448 245.16,393.58 233.966,396.311 232.461,392.613 			"/>
			<polygon style="opacity:0.3;fill:#FFFFFF;" points="244.738,389.448 245.16,393.58 233.966,396.311 232.461,392.613 			"/>
			<path style="fill:#FF5652;" d="M185.445,203.438l3.334,4.679c0,0-1.543,1.269-3.832,0.58L185.445,203.438z"/>
			<path style="fill:#1A2E35;" d="M184.27,199.954c0.11,0.006,0.216-0.042,0.285-0.128c0.481-0.674,1.257-1.075,2.085-1.079
				c0.179,0.013,0.334-0.12,0.35-0.299c0.01-0.18-0.124-0.336-0.304-0.351c-1.049-0.019-2.041,0.477-2.653,1.329
				c-0.11,0.144-0.083,0.35,0.061,0.46l0.001,0C184.145,199.926,184.207,199.949,184.27,199.954z"/>
			<path style="fill:#1A2E35;" d="M187.265,202.667c0.039,0.624-0.252,1.153-0.661,1.18c-0.409,0.027-0.801-0.482-0.823-1.09
				c-0.022-0.608,0.252-1.153,0.662-1.173C186.854,201.563,187.219,202.044,187.265,202.667z"/>
			<path style="fill:#FF8B7B;" d="M162.959,200.028c0.16,8.317,0.048,11.847,4.058,16.281c6.22,4.605,16.228,4.66,18.554-3.544
				c2.097-7.381,1.484-19.712-6.504-23.402c-5.695-2.628-12.441-0.142-15.069,5.553C163.26,196.516,162.904,198.266,162.959,200.028
				z"/>
			<path style="opacity:0.2;fill:#1A2E35;" d="M175.667,219.401l0.039-0.41c0.086-0.906,0.887-2.616,1.776-2.422l3.48,1.831
				C179.376,219.166,177.554,219.481,175.667,219.401z"/>
			<polygon style="fill:#FF8B7B;" points="175.867,217.287 173.61,229.77 162.118,228.234 165.837,215.383 			"/>
			<g>
				<path style="fill:#407BFF;" d="M175.596,224.461l3.893-2.239c0,0-12.442-4.06-17.791-2.51c-5.349,1.549-3.025,4.024-3.025,4.024
					L175.596,224.461z"/>
				<path style="opacity:0.3;" d="M175.596,224.461l3.893-2.239c0,0-12.442-4.06-17.791-2.51c-5.349,1.549-3.025,4.024-3.025,4.024
					L175.596,224.461z"/>
			</g>
			<g>
				<path style="fill:#FF8B7B;" d="M161.497,241.964c0,0,5.438,20.695,7.545,22.709c1.353,1.294,24.972-1.439,24.972-1.439
					l6.566-2.311c1.11-0.391,2.339-0.154,3.233,0.61c1.999,1.707,5.311,4.797,5.421,6.613c0.043,0.71-0.925,2.153-1.61,2.344
					c-1.353,0.378-5.122-2.313-5.122-2.313l-8.569,0.753c0,0-21.293,6.401-27.531,5.791c-7.243-0.709-13.911-26.808-13.911-26.808
					L161.497,241.964z"/>
				<path style="opacity:0.1;" d="M161.497,241.964c0,0,5.438,20.695,7.545,22.709c1.353,1.294,24.972-1.439,24.972-1.439
					l6.566-2.311c1.11-0.391,2.339-0.154,3.233,0.61c1.999,1.707,5.311,4.797,5.421,6.613c0.043,0.71-0.925,2.153-1.61,2.344
					c-1.353,0.378-5.122-2.313-5.122-2.313l-8.569,0.753c0,0-21.293,6.401-27.531,5.791c-7.243-0.709-13.911-26.808-13.911-26.808
					L161.497,241.964z"/>
				<path style="fill:#407BFF;" d="M153.164,226.733c0,0,6.153,0.723,10.723,21.175c0,0-5.666,1.521-10.232,5.733
					c0,0-3.654-9.335-4.01-14.433C149.17,232.412,153.164,226.733,153.164,226.733z"/>
				<path style="opacity:0.3;" d="M153.164,226.733c0,0,6.153,0.723,10.723,21.175c0,0-5.666,1.521-10.232,5.733
					c0,0-3.654-9.335-4.01-14.433C149.17,232.412,153.164,226.733,153.164,226.733z"/>
			</g>
			<path style="fill:#407BFF;" d="M186.635,230.247c0,0-6.653,46.49-7.419,70.603c0,0-15.184,1.759-40.992,2.148
				c0,0-3.939-75.151,20.451-79.262C181.423,219.9,186.635,230.247,186.635,230.247z"/>
			<path style="opacity:0.3;" d="M186.635,230.247c0,0-6.26,39.647-7.026,63.76c0,0-14.948-0.389-40.755,0
				c0,0-4.569-66.159,19.82-70.271C181.423,219.9,186.635,230.247,186.635,230.247z"/>
			<path style="opacity:0.2;" d="M180.142,234.676l4.81,7.974c-0.499,3.813-1.068,8.289-1.65,13.113
				c-5.301-11.313-4.43-21.02-4.43-21.02L180.142,234.676z"/>
			<g>
				<path style="fill:#FF8B7B;" d="M187.946,231.977c0,0,9.9,21.782,12.396,23.565c1.603,1.145,20.305-0.709,20.305-0.709
					s5.916-4.552,8.219-4.293c2.732,0.307,7.82,4.437,8.375,7.13c0.151,0.733-0.641,2.382-1.326,2.684
					c-1.353,0.597-4.205-1.605-5.684-1.642c-2.263-0.058-6.626,1.492-8.816,2.069c-7.077,1.863-15.729,5.329-22.32,5.627
					c-7.653,0.347-19.644-26.881-19.644-26.881L187.946,231.977z"/>
				<path style="fill:#407BFF;" d="M180.992,225.458c0,0,6.518-0.215,14.489,20.354c0,0-5.658,2.474-9.748,7.576
					c0,0-5.271-9.142-6.443-14.392C177.728,231.997,180.992,225.458,180.992,225.458z"/>
				<path style="opacity:0.3;" d="M180.992,225.458c0,0,6.518-0.215,14.489,20.354c0,0-5.658,2.474-9.748,7.576
					c0,0-5.271-9.142-6.443-14.392C177.728,231.997,180.992,225.458,180.992,225.458z"/>
			</g>
			<path style="fill:#263238;" d="M173.517,216.841c0,0,5.366-3.86,5.972-11.05c0,0,0.954-2.567,1.373-4.943
				c0.419-2.375,0.1-7.796,0.1-7.796s2.622,0.286,2.617-2.304c0,0,0.933-4.268-1.725-7.206c-2.658-2.938-4.603,1.966-4.603,1.966
				s-2.254-5.589-4.743-4.734c-2.489,0.854-2.271,4.333-2.271,4.333s-5.995-3.176-7.306-0.573c-1.312,2.603,1.733,4.198,1.733,4.198
				s-6.794-0.313-6.184,2.551c0.61,2.864,2.995,2.719,2.995,2.719s-3.477,0.022-3.687,2.929c-0.21,2.907,2.568,1.676,2.965,5.275
				c0.355,3.227,1.139,8.177,3.825,12.557c0.528,0.861,1.473,1.398,2.483,1.38C168.363,216.119,170.521,216.225,173.517,216.841z"/>
			<path style="fill:#FF8B7B;" d="M180.061,202.468c0.602,1.589,0.545,3.353-0.157,4.901c-0.947,2.046-2.061,1.568-3.24-0.206
				c-1.069-1.607-1.846-4.596-0.197-6.074C178.115,199.611,179.303,200.533,180.061,202.468z"/>
			<g>
				<g>
					<g>
						<path style="fill:#407BFF;" d="M176.789,188.929c-1.151-2.449-2.935-5.556-5.605-7.192c0,0-3.224,2.258-3.527,2.326
							c-0.148-0.148,4.305,3.609,5.425,6.423c1.933,4.819,2.046,10.806,2.046,10.806l3.807-0.888
							C178.935,200.405,179.39,194.385,176.789,188.929z"/>
					</g>
					<g style="opacity:0.3;enable-background:new    ;">
						<path d="M176.789,188.929c-1.151-2.449-2.935-5.556-5.605-7.192c0,0-3.224,2.258-3.527,2.326
							c-0.148-0.148,4.305,3.609,5.425,6.423c1.933,4.819,2.046,10.806,2.046,10.806l3.807-0.888
							C178.935,200.405,179.39,194.385,176.789,188.929z"/>
					</g>
				</g>
				<g>
					<path style="fill:#407BFF;" d="M181.322,197.547L181.322,197.547c3.313,2.179,4.233,6.631,2.055,9.944
						c-2.179,3.313-6.631,4.233-9.944,2.055c-1.852-1.061-3.441-5.492-1.26-8.796C174.357,197.435,178.025,195.379,181.322,197.547z
						"/>
					<path style="opacity:0.3;enable-background:new    ;" d="M182.217,200.013c1.96,1.349,2.194,4.485,0.506,7.04
						c-1.688,2.555-4.645,3.582-6.622,2.284c-1.977-1.298-1.599-4.523,0.079-7.082C177.837,199.69,180.258,198.664,182.217,200.013z
						"/>
					<polygon style="fill:#263238;" points="175.213,204.812 183.682,203.766 183.192,204.933 175.758,205.958 					"/>
				</g>
			</g>
		</g>
		<g>
			<path style="fill:#263238;" d="M128.006,393.998c6.629-1.09,16.46-2.632,20.838-2.955c0.961-0.071,2.167-0.124,3.495-0.159
				V356.88h8.326v34.004c1.327,0.035,2.533,0.088,3.494,0.159c4.379,0.323,14.209,1.865,20.838,2.955
				c3.819,0.628,6.616,3.929,6.616,7.799v1.718h-8.075l-1.085-2.417c0,0-15.178-2.629-20.293-3.006
				c-2.822-0.208-8.498-0.208-11.32,0c-5.115,0.377-20.292,3.006-20.292,3.006l-1.085,2.417h-8.075v-1.718
				C121.39,397.927,124.187,394.626,128.006,393.998z"/>
			<path style="fill:#263238;" d="M119.081,409.209c0,3.145,2.549,5.694,5.694,5.694s5.694-2.549,5.694-5.694
				c0-3.145-2.549-5.694-5.694-5.694S119.081,406.065,119.081,409.209z"/>
			<path style="opacity:0.5;fill:#FFFFFF;" d="M121.927,409.209c0,1.572,1.275,2.847,2.847,2.847c1.572,0,2.847-1.275,2.847-2.847
				s-1.275-2.847-2.847-2.847C123.202,406.362,121.927,407.637,121.927,409.209z"/>
			<path style="fill:#263238;" d="M182.536,409.209c0,3.145,2.549,5.694,5.694,5.694c3.145,0,5.694-2.549,5.694-5.694
				c0-3.145-2.549-5.694-5.694-5.694C185.085,403.515,182.536,406.065,182.536,409.209z"/>
			<path style="opacity:0.5;fill:#FFFFFF;" d="M185.383,409.209c0,1.572,1.275,2.847,2.847,2.847c1.572,0,2.847-1.275,2.847-2.847
				s-1.275-2.847-2.847-2.847C186.658,406.362,185.383,407.637,185.383,409.209z"/>
			<rect x="152.339" y="356.88" style="opacity:0.1;" width="8.326" height="10.245"/>
			<path style="fill:#263238;" d="M153.384,361.76h6.237c1.969,0,3.566-1.596,3.566-3.566v-29.043h-13.368v29.043
				C149.818,360.164,151.415,361.76,153.384,361.76z"/>
			<path style="opacity:0.3;fill:#FFFFFF;" d="M153.384,361.76h6.237c1.969,0,3.566-1.596,3.566-3.566v-29.043h-13.368v29.043
				C149.818,360.164,151.415,361.76,153.384,361.76z"/>
			<rect x="149.818" y="329.151" style="opacity:0.2;" width="13.368" height="7.936"/>
			<path style="fill:#263238;" d="M111.307,322.383c7.976-2.034,16.171-3.152,24.389-3.358c8.469-0.212,40.17-0.032,47.699-0.035
				c9.164-0.004,18.327,1.126,27.218,3.393c5.589,1.425,3.866,9.491-1.182,9.584c-0.446,0.008-96.277-0.021-96.629-0.005
				C107.522,332.202,105.595,323.839,111.307,322.383z"/>
			<g>
				<path style="fill:#263238;" d="M95.447,253.155c2.423,0,4.461-1.817,4.737-4.224l1.199-10.439
					c0.277-2.407,2.314-4.224,4.737-4.224h7.592h4.965h7.592c2.222,0,4.15,1.535,4.648,3.701l2.638,11.486
					c0.497,2.166,2.425,3.701,4.647,3.701h1.555c2.422,0,4.46,1.816,4.737,4.222l7.577,65.709c0.326,2.831-1.887,5.315-4.737,5.315
					h-7.592h-29.126h-7.592c-2.422,0-4.459-1.816-4.737-4.222L90.71,258.47C90.383,255.639,92.597,253.155,95.447,253.155z"/>
				<path style="opacity:0.3;fill:#FFFFFF;" d="M95.447,253.155c2.423,0,4.461-1.817,4.737-4.224l1.199-10.439
					c0.277-2.407,2.314-4.224,4.737-4.224h7.592h4.965h7.592c2.222,0,4.15,1.535,4.648,3.701l2.638,11.486
					c0.497,2.166,2.425,3.701,4.647,3.701h1.555c2.422,0,4.46,1.816,4.737,4.222l7.577,65.709c0.326,2.831-1.887,5.315-4.737,5.315
					h-7.592h-29.126h-7.592c-2.422,0-4.459-1.816-4.737-4.222L90.71,258.47C90.383,255.639,92.597,253.155,95.447,253.155z"/>
				<path style="fill:#263238;" d="M100.184,248.931l1.199-10.439c0.277-2.407,2.314-4.224,4.737-4.224h12.557
					c2.222,0,4.15,1.535,4.647,3.701l2.638,11.486c0.497,2.166,2.425,3.701,4.647,3.701h1.555c2.422,0,4.459,1.816,4.737,4.222
					l7.577,65.709c0.326,2.831-1.887,5.315-4.737,5.315h-36.718c-2.422,0-4.459-1.816-4.737-4.222L90.71,258.47
					c-0.326-2.831,1.887-5.314,4.737-5.314l0,0C97.87,253.155,99.908,251.338,100.184,248.931z"/>
				<path style="opacity:0.1;fill:#FFFFFF;" d="M100.184,248.931l1.199-10.439c0.277-2.407,2.314-4.224,4.737-4.224h12.557
					c2.222,0,4.15,1.535,4.647,3.701l2.638,11.486c0.497,2.166,2.425,3.701,4.647,3.701h1.555c2.422,0,4.459,1.816,4.737,4.222
					l7.577,65.709c0.326,2.831-1.887,5.315-4.737,5.315h-36.718c-2.422,0-4.459-1.816-4.737-4.222L90.71,258.47
					c-0.326-2.831,1.887-5.314,4.737-5.314l0,0C97.87,253.155,99.908,251.338,100.184,248.931z"/>
			</g>
			<path style="opacity:0.3;fill:#FFFFFF;" d="M208.018,331.795c-16.098-4.105-33.149-4.105-49.247,0
				c-6.09,1.553-8.687-7.858-2.595-9.412c17.781-4.534,36.656-4.534,54.437,0C216.696,323.934,214.118,333.35,208.018,331.795
				L208.018,331.795z"/>
			<g>
				<path style="fill:#263238;" d="M182.536,328.401L182.536,328.401c1.198,0,2.169-0.971,2.169-2.169v-24.945
					c0-1.198-0.971-2.169-2.169-2.169l0,0c-1.198,0-2.169,0.971-2.169,2.169v24.945C180.367,327.43,181.338,328.401,182.536,328.401
					z"/>
				<path style="opacity:0.5;fill:#FFFFFF;" d="M182.536,328.401L182.536,328.401c1.198,0,2.169-0.971,2.169-2.169v-24.945
					c0-1.198-0.971-2.169-2.169-2.169l0,0c-1.198,0-2.169,0.971-2.169,2.169v24.945C180.367,327.43,181.338,328.401,182.536,328.401
					z"/>
				<path style="opacity:0.2;" d="M182.536,299.118c1.198,0,2.169,0.971,2.169,2.169v6.459h-4.338v-6.459
					C180.367,300.089,181.338,299.118,182.536,299.118z"/>
				<g>
					<path style="fill:#263238;" d="M205.537,304.008c-17.142,0-28.86,0-46.002,0c-4.187,0-4.194-6.507,0-6.507
						c17.142,0,28.861,0,46.002,0C209.724,297.501,209.731,304.008,205.537,304.008L205.537,304.008z"/>
				</g>
				<g style="opacity:0.1;">
					<path style="fill:#FFFFFF;" d="M205.537,304.008c-17.142,0-28.86,0-46.002,0c-4.187,0-4.194-6.507,0-6.507
						c17.142,0,28.861,0,46.002,0C209.724,297.501,209.731,304.008,205.537,304.008L205.537,304.008z"/>
				</g>
				<g>
					<path style="fill:#263238;" d="M205.537,304.008c-17.142,0-21.269,0-38.41,0c-4.187,0-4.194-6.507,0-6.507
						c17.142,0,21.269,0,38.41,0C209.724,297.501,209.731,304.008,205.537,304.008L205.537,304.008z"/>
				</g>
				<g style="opacity:0.3;">
					<path style="fill:#FFFFFF;" d="M205.537,304.008c-17.142,0-21.269,0-38.41,0c-4.187,0-4.194-6.507,0-6.507
						c17.142,0,21.269,0,38.41,0C209.724,297.501,209.731,304.008,205.537,304.008L205.537,304.008z"/>
				</g>
			</g>
			<path style="opacity:0.1;" d="M153.936,392.485h5.133l3.901,5.678c-0.288-0.028-0.563-0.052-0.808-0.07
				c-2.822-0.208-8.498-0.208-11.32,0c-0.245,0.018-0.519,0.043-0.807,0.07L153.936,392.485z"/>
			<path style="fill:#263238;" d="M150.698,409.209c0,3.145,2.549,5.694,5.694,5.694c3.145,0,5.694-2.549,5.694-5.694
				c0-3.145-2.549-5.694-5.694-5.694C153.247,403.515,150.698,406.065,150.698,409.209z"/>
			<path style="opacity:0.5;fill:#FFFFFF;" d="M153.545,409.209c0,1.572,1.274,2.847,2.847,2.847c1.572,0,2.847-1.275,2.847-2.847
				s-1.275-2.847-2.847-2.847C154.82,406.362,153.545,407.637,153.545,409.209z"/>
			<polygon style="fill:#263238;" points="153.936,403.041 159.068,403.041 160.153,391.401 152.851,391.401 			"/>
			<polygon style="opacity:0.2;fill:#FFFFFF;" points="153.936,403.041 159.068,403.041 160.153,391.401 152.851,391.401 			"/>
		</g>
	</g>
</g>
</svg>
